<svg width="1768" height="1028" viewBox="0 0 1768 1028" fill="none" xmlns="http://www.w3.org/2000/svg">
<path d="M176.501 183.5C181.167 170 219.8 151.1 339 183.5C488 224 466 250.814 394 223.314C322 195.814 232 167.186 141.5 105C105.117 80 39.9442 56.5 11.5003 118.314C-4 152 -19.8203 257.985 176.501 203C361.5 151.186 326.5 262.314 322.5 306.814C318.5 351.314 268 573.314 342 753.814C416 934.314 648 1108 1031 982.5C1420.38 854.911 1491 416.814 1468.5 234.314C1446 51.8138 1237 -107.186 1130.5 -83.6862C1024 -60.1862 994.666 -36 1018.5 62.3125C1037.45 140.5 1130.5 262 1315 299.812C1515.53 340.911 1717.5 284.312 1684 313.812C1650.5 343.312 1453.5 415.812 1553.5 431.312C1633.5 443.712 1748.5 406.479 1796 386.312" stroke="url(#paint0_linear_2282_206)" stroke-width="5" stroke-linecap="round"/>
<defs>
<linearGradient id="paint0_linear_2282_206" x1="1510" y1="264.5" x2="207" y2="264.5" gradientUnits="userSpaceOnUse">
<stop stop-color="#E2E0FF"/>
<stop offset="1" stop-color="#827FCC"/>
</linearGradient>
</defs>
</svg>
