<svg width="633" height="629" viewBox="0 0 633 629" fill="none" xmlns="http://www.w3.org/2000/svg">
<path d="M213.169 3.6939V10.6939H197.629V55.0039H189.719V10.6939H174.179V3.6939H213.169ZM230.803 55.9139C227.303 55.9139 224.223 55.0972 221.563 53.4639C218.949 51.8306 216.919 49.5206 215.473 46.5339C214.073 43.5006 213.373 39.9539 213.373 35.8939C213.373 31.8806 214.073 28.3806 215.473 25.3939C216.919 22.3606 218.949 20.0272 221.563 18.3939C224.223 16.7606 227.303 15.9439 230.803 15.9439C234.303 15.9439 237.359 16.7606 239.973 18.3939C242.633 20.0272 244.686 22.3606 246.133 25.3939C247.579 28.3806 248.303 31.8806 248.303 35.8939C248.303 39.9539 247.579 43.5006 246.133 46.5339C244.686 49.5206 242.633 51.8306 239.973 53.4639C237.359 55.0972 234.303 55.9139 230.803 55.9139ZM230.803 49.5439C233.696 49.5439 235.983 48.6572 237.663 46.8839C239.389 45.0639 240.253 42.4739 240.253 39.1139V32.7439C240.253 29.3839 239.389 26.8172 237.663 25.0439C235.983 23.2239 233.696 22.3139 230.803 22.3139C227.909 22.3139 225.623 23.2239 223.943 25.0439C222.263 26.8172 221.423 29.3839 221.423 32.7439V39.1139C221.423 42.4739 222.263 45.0639 223.943 46.8839C225.623 48.6572 227.909 49.5439 230.803 49.5439ZM271.944 55.9139C268.444 55.9139 265.364 55.0972 262.704 53.4639C260.091 51.8306 258.061 49.5206 256.614 46.5339C255.214 43.5006 254.514 39.9539 254.514 35.8939C254.514 31.8806 255.214 28.3806 256.614 25.3939C258.061 22.3606 260.091 20.0272 262.704 18.3939C265.364 16.7606 268.444 15.9439 271.944 15.9439C275.444 15.9439 278.501 16.7606 281.114 18.3939C283.774 20.0272 285.827 22.3606 287.274 25.3939C288.721 28.3806 289.444 31.8806 289.444 35.8939C289.444 39.9539 288.721 43.5006 287.274 46.5339C285.827 49.5206 283.774 51.8306 281.114 53.4639C278.501 55.0972 275.444 55.9139 271.944 55.9139ZM271.944 49.5439C274.837 49.5439 277.124 48.6572 278.804 46.8839C280.531 45.0639 281.394 42.4739 281.394 39.1139V32.7439C281.394 29.3839 280.531 26.8172 278.804 25.0439C277.124 23.2239 274.837 22.3139 271.944 22.3139C269.051 22.3139 266.764 23.2239 265.084 25.0439C263.404 26.8172 262.564 29.3839 262.564 32.7439V39.1139C262.564 42.4739 263.404 45.0639 265.084 46.8839C266.764 48.6572 269.051 49.5439 271.944 49.5439ZM306.226 55.0039C303.706 55.0039 301.769 54.3272 300.416 52.9739C299.062 51.5739 298.386 49.6839 298.386 47.3039V0.613906H306.016V48.7739H311.266V55.0039H306.226ZM320.488 66.1339H313.978L334.138 0.613906H340.718L320.488 66.1339ZM364.015 55.9139C356.268 55.9139 350.061 52.9972 345.395 47.1639L350.995 42.1939C354.541 46.6739 359.045 48.9139 364.505 48.9139C367.771 48.9139 370.268 48.1672 371.995 46.6739C373.768 45.1339 374.655 43.0572 374.655 40.4439C374.655 38.2972 374.025 36.6406 372.765 35.4739C371.505 34.2606 369.381 33.3739 366.395 32.8139L361.915 31.9039C356.921 30.9706 353.165 29.3372 350.645 27.0039C348.171 24.6239 346.935 21.4272 346.935 17.4139C346.935 12.8872 348.545 9.31724 351.765 6.7039C354.985 4.09057 359.325 2.7839 364.785 2.7839C372.251 2.7839 377.968 5.42057 381.935 10.6939L376.405 15.4539C373.465 11.6739 369.451 9.7839 364.365 9.7839C361.285 9.7839 358.928 10.4139 357.295 11.6739C355.661 12.8872 354.845 14.6606 354.845 16.9939C354.845 19.1872 355.498 20.8439 356.805 21.9639C358.111 23.0839 360.258 23.9472 363.245 24.5539L367.795 25.3939C372.928 26.4672 376.661 28.1706 378.995 30.5039C381.375 32.8372 382.565 36.0106 382.565 40.0239C382.565 43.1972 381.818 45.9972 380.325 48.4239C378.878 50.8039 376.755 52.6472 373.955 53.9539C371.155 55.2606 367.841 55.9139 364.015 55.9139ZM399.704 55.0039H392.004V0.613906H399.704V34.3539H399.984L405.374 27.6339L415.244 16.8539H423.994L410.344 31.7639L425.324 55.0039H416.224L405.024 36.8039L399.704 42.4739V55.0039ZM435.765 9.5739C434.225 9.5739 433.082 9.2239 432.335 8.5239C431.588 7.8239 431.215 6.86724 431.215 5.6539V4.4639C431.215 3.2039 431.588 2.2239 432.335 1.5239C433.082 0.823903 434.225 0.473903 435.765 0.473903C437.305 0.473903 438.448 0.823903 439.195 1.5239C439.942 2.2239 440.315 3.2039 440.315 4.4639V5.6539C440.315 6.86724 439.942 7.8239 439.195 8.5239C438.448 9.2239 437.305 9.5739 435.765 9.5739ZM439.545 55.0039H431.915V16.8539H439.545V55.0039ZM459.092 55.0039C456.572 55.0039 454.635 54.3272 453.282 52.9739C451.928 51.5739 451.252 49.6839 451.252 47.3039V0.613906H458.882V48.7739H464.132V55.0039H459.092ZM479.384 55.0039C476.864 55.0039 474.927 54.3272 473.574 52.9739C472.22 51.5739 471.544 49.6839 471.544 47.3039V0.613906H479.174V48.7739H484.424V55.0039H479.384Z" fill="#688EFF"/>
<path d="M3.48643 452.18V433.855H8.71143C10.0781 433.855 11.2781 434.03 12.3114 434.38C13.3448 434.713 14.1448 435.271 14.7114 436.055C15.2781 436.838 15.5614 437.896 15.5614 439.23C15.5614 440.513 15.2781 441.571 14.7114 442.405C14.1448 443.238 13.3531 443.863 12.3364 444.28C11.3198 444.68 10.1448 444.88 8.81143 444.88H5.78643V452.18H3.48643ZM5.78643 443.005H8.51143C10.1114 443.005 11.3031 442.705 12.0864 442.105C12.8698 441.505 13.2614 440.546 13.2614 439.23C13.2614 437.896 12.8531 436.98 12.0364 436.48C11.2364 435.98 10.0281 435.73 8.41143 435.73H5.78643V443.005ZM19.3067 452.18V433.855H21.6067V441.53H30.1567V433.855H32.4817V452.18H30.1567V443.53H21.6067V452.18H19.3067ZM44.2452 452.505C42.7119 452.505 41.3535 452.121 40.1702 451.355C39.0035 450.571 38.0869 449.463 37.4202 448.03C36.7535 446.596 36.4202 444.905 36.4202 442.955C36.4202 440.988 36.7535 439.305 37.4202 437.905C38.0869 436.488 39.0035 435.405 40.1702 434.655C41.3535 433.905 42.7119 433.53 44.2452 433.53C45.7785 433.53 47.1285 433.913 48.2952 434.68C49.4785 435.43 50.4035 436.505 51.0702 437.905C51.7369 439.305 52.0702 440.988 52.0702 442.955C52.0702 444.905 51.7369 446.596 51.0702 448.03C50.4035 449.463 49.4785 450.571 48.2952 451.355C47.1285 452.121 45.7785 452.505 44.2452 452.505ZM44.2452 450.48C45.3452 450.48 46.3035 450.171 47.1202 449.555C47.9369 448.938 48.5702 448.063 49.0202 446.93C49.4702 445.796 49.6952 444.471 49.6952 442.955C49.6952 441.421 49.4702 440.105 49.0202 439.005C48.5702 437.888 47.9369 437.038 47.1202 436.455C46.3035 435.855 45.3452 435.555 44.2452 435.555C43.1619 435.555 42.2035 435.855 41.3702 436.455C40.5535 437.038 39.9202 437.888 39.4702 439.005C39.0202 440.105 38.7952 441.421 38.7952 442.955C38.7952 444.471 39.0202 445.796 39.4702 446.93C39.9202 448.063 40.5535 448.938 41.3702 449.555C42.2035 450.171 43.1619 450.48 44.2452 450.48ZM59.1175 452.18V435.805H53.5675V433.855H66.9925V435.805H61.4425V452.18H59.1175ZM76.3009 452.505C74.7675 452.505 73.4092 452.121 72.2259 451.355C71.0592 450.571 70.1425 449.463 69.4759 448.03C68.8092 446.596 68.4759 444.905 68.4759 442.955C68.4759 440.988 68.8092 439.305 69.4759 437.905C70.1425 436.488 71.0592 435.405 72.2259 434.655C73.4092 433.905 74.7675 433.53 76.3009 433.53C77.8342 433.53 79.1842 433.913 80.3509 434.68C81.5342 435.43 82.4592 436.505 83.1259 437.905C83.7925 439.305 84.1259 440.988 84.1259 442.955C84.1259 444.905 83.7925 446.596 83.1259 448.03C82.4592 449.463 81.5342 450.571 80.3509 451.355C79.1842 452.121 77.8342 452.505 76.3009 452.505ZM76.3009 450.48C77.4009 450.48 78.3592 450.171 79.1759 449.555C79.9925 448.938 80.6259 448.063 81.0759 446.93C81.5259 445.796 81.7509 444.471 81.7509 442.955C81.7509 441.421 81.5259 440.105 81.0759 439.005C80.6259 437.888 79.9925 437.038 79.1759 436.455C78.3592 435.855 77.4009 435.555 76.3009 435.555C75.2175 435.555 74.2592 435.855 73.4259 436.455C72.6092 437.038 71.9759 437.888 71.5259 439.005C71.0759 440.105 70.8509 441.421 70.8509 442.955C70.8509 444.471 71.0759 445.796 71.5259 446.93C71.9759 448.063 72.6092 448.938 73.4259 449.555C74.2592 450.171 75.2175 450.48 76.3009 450.48ZM93.1806 452.505C91.8806 452.505 90.6806 452.263 89.5806 451.78C88.4972 451.296 87.5639 450.638 86.7806 449.805L88.1556 448.205C88.8056 448.888 89.5722 449.438 90.4556 449.855C91.3389 450.271 92.2556 450.48 93.2056 450.48C94.4222 450.48 95.3639 450.205 96.0306 449.655C96.7139 449.105 97.0556 448.388 97.0556 447.505C97.0556 446.855 96.9139 446.338 96.6306 445.955C96.3639 445.571 95.9972 445.255 95.5306 445.005C95.0806 444.738 94.5639 444.48 93.9806 444.23L91.3556 443.08C90.7889 442.83 90.2139 442.513 89.6306 442.13C89.0639 441.746 88.5889 441.246 88.2056 440.63C87.8222 440.013 87.6306 439.263 87.6306 438.38C87.6306 437.43 87.8806 436.596 88.3806 435.88C88.8806 435.146 89.5639 434.571 90.4306 434.155C91.2972 433.738 92.2889 433.53 93.4056 433.53C94.5056 433.53 95.5139 433.738 96.4306 434.155C97.3639 434.571 98.1472 435.113 98.7806 435.78L97.5806 437.255C97.0139 436.738 96.3889 436.33 95.7056 436.03C95.0389 435.713 94.2722 435.555 93.4056 435.555C92.3722 435.555 91.5389 435.796 90.9056 436.28C90.2889 436.746 89.9806 437.388 89.9806 438.205C89.9806 438.805 90.1306 439.296 90.4306 439.68C90.7472 440.063 91.1389 440.371 91.6056 440.605C92.0722 440.838 92.5472 441.063 93.0306 441.28L95.6306 442.405C96.3306 442.705 96.9639 443.063 97.5306 443.48C98.1139 443.896 98.5722 444.413 98.9056 445.03C99.2389 445.646 99.4056 446.405 99.4056 447.305C99.4056 448.271 99.1556 449.155 98.6556 449.955C98.1556 450.738 97.4389 451.363 96.5056 451.83C95.5722 452.28 94.4639 452.505 93.1806 452.505ZM102.998 452.18V433.855H105.298V441.53H113.848V433.855H116.173V452.18H113.848V443.53H105.298V452.18H102.998ZM127.937 452.505C126.403 452.505 125.045 452.121 123.862 451.355C122.695 450.571 121.778 449.463 121.112 448.03C120.445 446.596 120.112 444.905 120.112 442.955C120.112 440.988 120.445 439.305 121.112 437.905C121.778 436.488 122.695 435.405 123.862 434.655C125.045 433.905 126.403 433.53 127.937 433.53C129.47 433.53 130.82 433.913 131.987 434.68C133.17 435.43 134.095 436.505 134.762 437.905C135.428 439.305 135.762 440.988 135.762 442.955C135.762 444.905 135.428 446.596 134.762 448.03C134.095 449.463 133.17 450.571 131.987 451.355C130.82 452.121 129.47 452.505 127.937 452.505ZM127.937 450.48C129.037 450.48 129.995 450.171 130.812 449.555C131.628 448.938 132.262 448.063 132.712 446.93C133.162 445.796 133.387 444.471 133.387 442.955C133.387 441.421 133.162 440.105 132.712 439.005C132.262 437.888 131.628 437.038 130.812 436.455C129.995 435.855 129.037 435.555 127.937 435.555C126.853 435.555 125.895 435.855 125.062 436.455C124.245 437.038 123.612 437.888 123.162 439.005C122.712 440.105 122.487 441.421 122.487 442.955C122.487 444.471 122.712 445.796 123.162 446.93C123.612 448.063 124.245 448.938 125.062 449.555C125.895 450.171 126.853 450.48 127.937 450.48ZM139.741 452.18V433.855H144.966C146.333 433.855 147.533 434.03 148.566 434.38C149.6 434.713 150.4 435.271 150.966 436.055C151.533 436.838 151.816 437.896 151.816 439.23C151.816 440.513 151.533 441.571 150.966 442.405C150.4 443.238 149.608 443.863 148.591 444.28C147.575 444.68 146.4 444.88 145.066 444.88H142.041V452.18H139.741ZM142.041 443.005H144.766C146.366 443.005 147.558 442.705 148.341 442.105C149.125 441.505 149.516 440.546 149.516 439.23C149.516 437.896 149.108 436.98 148.291 436.48C147.491 435.98 146.283 435.73 144.666 435.73H142.041V443.005Z" fill="#808080"/>
<path d="M62.2419 622.177C61.1086 622.177 60.0502 621.968 59.0669 621.552C58.1002 621.118 57.2586 620.493 56.5419 619.677C55.8252 618.86 55.2669 617.868 54.8669 616.702C54.4669 615.518 54.2669 614.185 54.2669 612.702C54.2669 611.218 54.4669 609.893 54.8669 608.727C55.2836 607.543 55.8586 606.543 56.5919 605.727C57.3252 604.91 58.1836 604.285 59.1669 603.852C60.1502 603.418 61.2252 603.202 62.3919 603.202C63.5086 603.202 64.4919 603.435 65.3419 603.902C66.1919 604.352 66.8836 604.868 67.4169 605.452L66.1669 606.952C65.6836 606.435 65.1336 606.018 64.5169 605.702C63.9002 605.385 63.2002 605.227 62.4169 605.227C61.2669 605.227 60.2586 605.527 59.3919 606.127C58.5252 606.727 57.8502 607.585 57.3669 608.702C56.8836 609.802 56.6419 611.11 56.6419 612.627C56.6419 614.177 56.8752 615.518 57.3419 616.652C57.8086 617.768 58.4669 618.635 59.3169 619.252C60.1669 619.852 61.1752 620.152 62.3419 620.152C63.2086 620.152 63.9836 619.968 64.6669 619.602C65.3669 619.235 66.0086 618.727 66.5919 618.077L67.8669 619.552C67.1502 620.385 66.3336 621.035 65.4169 621.502C64.5002 621.952 63.4419 622.177 62.2419 622.177ZM68.8593 621.852L75.0593 603.527H77.6343L83.8593 621.852H81.4093L78.2093 611.602C77.8759 610.552 77.5593 609.527 77.2593 608.527C76.9593 607.51 76.6593 606.468 76.3593 605.402H76.2593C75.9759 606.468 75.6759 607.51 75.3593 608.527C75.0593 609.527 74.7509 610.552 74.4343 611.602L71.1843 621.852H68.8593ZM72.0843 616.252V614.427H80.5343V616.252H72.0843ZM86.4942 621.852V603.527H91.0692C92.9526 603.527 94.5359 603.885 95.8192 604.602C97.1026 605.302 98.0692 606.327 98.7192 607.677C99.3692 609.027 99.6942 610.677 99.6942 612.627C99.6942 614.56 99.3692 616.218 98.7192 617.602C98.0692 618.985 97.1109 620.043 95.8442 620.777C94.5776 621.493 93.0192 621.852 91.1692 621.852H86.4942ZM88.7942 619.952H90.8692C92.3026 619.952 93.4942 619.668 94.4442 619.102C95.4109 618.518 96.1276 617.677 96.5942 616.577C97.0776 615.477 97.3192 614.16 97.3192 612.627C97.3192 611.06 97.0776 609.743 96.5942 608.677C96.1276 607.61 95.4109 606.802 94.4442 606.252C93.4942 605.685 92.3026 605.402 90.8692 605.402H88.7942V619.952Z" fill="#808080"/>
<path d="M217.516 282.547V264.222H219.816V271.897H228.366V264.222H230.691V282.547H228.366V273.897H219.816V282.547H217.516ZM239.504 282.547V266.172H233.954V264.222H247.379V266.172H241.829V282.547H239.504ZM250.67 282.547V264.222H253.445L256.945 274.022C257.178 274.639 257.403 275.272 257.62 275.922C257.837 276.572 258.053 277.214 258.27 277.847H258.37C258.603 277.214 258.82 276.572 259.02 275.922C259.237 275.272 259.445 274.639 259.645 274.022L263.145 264.222H265.92V282.547H263.77V272.397C263.77 271.864 263.787 271.289 263.82 270.672C263.853 270.039 263.895 269.405 263.945 268.772C263.995 268.122 264.037 267.53 264.07 266.997H263.97L262.495 271.172L259.045 280.697H257.495L254.02 271.172L252.545 266.997H252.445C252.512 267.53 252.562 268.122 252.595 268.772C252.645 269.405 252.678 270.039 252.695 270.672C252.728 271.289 252.745 271.864 252.745 272.397V282.547H250.67ZM270.958 282.547V264.222H273.258V280.572H281.283V282.547H270.958Z" fill="#808080"/>
<path d="M211.265 452.18V433.855H213.565V452.18H211.265ZM218.589 452.18V433.855H220.889V450.205H228.914V452.18H218.589ZM232.164 452.18V433.855H234.464V450.205H242.489V452.18H232.164ZM251.383 452.505C250.45 452.505 249.583 452.371 248.783 452.105C247.983 451.838 247.283 451.396 246.683 450.78C246.1 450.163 245.642 449.346 245.308 448.33C244.975 447.313 244.808 446.08 244.808 444.63V433.855H247.108V444.68C247.108 446.146 247.3 447.305 247.683 448.155C248.067 448.988 248.575 449.588 249.208 449.955C249.858 450.305 250.583 450.48 251.383 450.48C252.2 450.48 252.933 450.305 253.583 449.955C254.233 449.588 254.75 448.988 255.133 448.155C255.533 447.305 255.733 446.146 255.733 444.68V433.855H257.958V444.63C257.958 446.08 257.792 447.313 257.458 448.33C257.142 449.346 256.683 450.163 256.083 450.78C255.483 451.396 254.783 451.838 253.983 452.105C253.183 452.371 252.317 452.505 251.383 452.505ZM267.634 452.505C266.334 452.505 265.134 452.263 264.034 451.78C262.951 451.296 262.018 450.638 261.234 449.805L262.609 448.205C263.259 448.888 264.026 449.438 264.909 449.855C265.793 450.271 266.709 450.48 267.659 450.48C268.876 450.48 269.818 450.205 270.484 449.655C271.168 449.105 271.509 448.388 271.509 447.505C271.509 446.855 271.368 446.338 271.084 445.955C270.818 445.571 270.451 445.255 269.984 445.005C269.534 444.738 269.018 444.48 268.434 444.23L265.809 443.08C265.243 442.83 264.668 442.513 264.084 442.13C263.518 441.746 263.043 441.246 262.659 440.63C262.276 440.013 262.084 439.263 262.084 438.38C262.084 437.43 262.334 436.596 262.834 435.88C263.334 435.146 264.018 434.571 264.884 434.155C265.751 433.738 266.743 433.53 267.859 433.53C268.959 433.53 269.968 433.738 270.884 434.155C271.818 434.571 272.601 435.113 273.234 435.78L272.034 437.255C271.468 436.738 270.843 436.33 270.159 436.03C269.493 435.713 268.726 435.555 267.859 435.555C266.826 435.555 265.993 435.796 265.359 436.28C264.743 436.746 264.434 437.388 264.434 438.205C264.434 438.805 264.584 439.296 264.884 439.68C265.201 440.063 265.593 440.371 266.059 440.605C266.526 440.838 267.001 441.063 267.484 441.28L270.084 442.405C270.784 442.705 271.418 443.063 271.984 443.48C272.568 443.896 273.026 444.413 273.359 445.03C273.693 445.646 273.859 446.405 273.859 447.305C273.859 448.271 273.609 449.155 273.109 449.955C272.609 450.738 271.893 451.363 270.959 451.83C270.026 452.28 268.918 452.505 267.634 452.505ZM280.617 452.18V435.805H275.067V433.855H288.492V435.805H282.942V452.18H280.617Z" fill="#808080"/>
<path d="M212.523 621.852V603.527H218.248C219.498 603.527 220.598 603.693 221.548 604.027C222.514 604.343 223.273 604.877 223.823 605.627C224.373 606.377 224.648 607.385 224.648 608.652C224.648 609.868 224.373 610.885 223.823 611.702C223.273 612.502 222.514 613.102 221.548 613.502C220.598 613.885 219.498 614.077 218.248 614.077H214.823V621.852H212.523ZM214.823 612.227H217.898C219.331 612.227 220.431 611.935 221.198 611.352C221.964 610.752 222.348 609.852 222.348 608.652C222.348 607.452 221.964 606.61 221.198 606.127C220.431 605.643 219.331 605.402 217.898 605.402H214.823V612.227ZM222.573 621.852L217.773 613.477L219.598 612.252L225.173 621.852H222.573ZM228.392 621.852V603.527H230.692V611.202H239.242V603.527H241.567V621.852H239.242V613.202H230.692V621.852H228.392ZM246.58 621.852V603.527H248.88V621.852H246.58ZM253.904 621.852V603.527H256.254L262.954 615.077L264.929 618.852H265.054C264.971 617.935 264.896 616.977 264.829 615.977C264.763 614.977 264.729 614.002 264.729 613.052V603.527H266.929V621.852H264.554L257.879 610.277L255.904 606.527H255.804C255.854 607.443 255.913 608.385 255.979 609.352C256.046 610.302 256.079 611.26 256.079 612.227V621.852H253.904ZM278.721 622.177C277.187 622.177 275.829 621.793 274.646 621.027C273.479 620.243 272.562 619.135 271.896 617.702C271.229 616.268 270.896 614.577 270.896 612.627C270.896 610.66 271.229 608.977 271.896 607.577C272.562 606.16 273.479 605.077 274.646 604.327C275.829 603.577 277.187 603.202 278.721 603.202C280.254 603.202 281.604 603.585 282.771 604.352C283.954 605.102 284.879 606.177 285.546 607.577C286.212 608.977 286.546 610.66 286.546 612.627C286.546 614.577 286.212 616.268 285.546 617.702C284.879 619.135 283.954 620.243 282.771 621.027C281.604 621.793 280.254 622.177 278.721 622.177ZM278.721 620.152C279.821 620.152 280.779 619.843 281.596 619.227C282.412 618.61 283.046 617.735 283.496 616.602C283.946 615.468 284.171 614.143 284.171 612.627C284.171 611.093 283.946 609.777 283.496 608.677C283.046 607.56 282.412 606.71 281.596 606.127C280.779 605.527 279.821 605.227 278.721 605.227C277.637 605.227 276.679 605.527 275.846 606.127C275.029 606.71 274.396 607.56 273.946 608.677C273.496 609.777 273.271 611.093 273.271 612.627C273.271 614.143 273.496 615.468 273.946 616.602C274.396 617.735 275.029 618.61 275.846 619.227C276.679 619.843 277.637 620.152 278.721 620.152Z" fill="#808080"/>
<path d="M408.146 282.872C407.013 282.872 405.955 282.664 404.971 282.247C404.005 281.814 403.163 281.189 402.446 280.372C401.73 279.555 401.171 278.564 400.771 277.397C400.371 276.214 400.171 274.88 400.171 273.397C400.171 271.914 400.371 270.589 400.771 269.422C401.188 268.239 401.763 267.239 402.496 266.422C403.23 265.605 404.088 264.98 405.071 264.547C406.055 264.114 407.13 263.897 408.296 263.897C409.413 263.897 410.396 264.13 411.246 264.597C412.096 265.047 412.788 265.564 413.321 266.147L412.071 267.647C411.588 267.13 411.038 266.714 410.421 266.397C409.805 266.08 409.105 265.922 408.321 265.922C407.171 265.922 406.163 266.222 405.296 266.822C404.43 267.422 403.755 268.28 403.271 269.397C402.788 270.497 402.546 271.805 402.546 273.322C402.546 274.872 402.78 276.214 403.246 277.347C403.713 278.464 404.371 279.33 405.221 279.947C406.071 280.547 407.08 280.847 408.246 280.847C409.113 280.847 409.888 280.664 410.571 280.297C411.271 279.93 411.913 279.422 412.496 278.772L413.771 280.247C413.055 281.08 412.238 281.73 411.321 282.197C410.405 282.647 409.346 282.872 408.146 282.872ZM421.531 282.872C420.231 282.872 419.031 282.63 417.931 282.147C416.848 281.664 415.914 281.005 415.131 280.172L416.506 278.572C417.156 279.255 417.923 279.805 418.806 280.222C419.689 280.639 420.606 280.847 421.556 280.847C422.773 280.847 423.714 280.572 424.381 280.022C425.064 279.472 425.406 278.755 425.406 277.872C425.406 277.222 425.264 276.705 424.981 276.322C424.714 275.939 424.348 275.622 423.881 275.372C423.431 275.105 422.914 274.847 422.331 274.597L419.706 273.447C419.139 273.197 418.564 272.88 417.981 272.497C417.414 272.114 416.939 271.614 416.556 270.997C416.173 270.38 415.981 269.63 415.981 268.747C415.981 267.797 416.231 266.964 416.731 266.247C417.231 265.514 417.914 264.939 418.781 264.522C419.648 264.105 420.639 263.897 421.756 263.897C422.856 263.897 423.864 264.105 424.781 264.522C425.714 264.939 426.498 265.48 427.131 266.147L425.931 267.622C425.364 267.105 424.739 266.697 424.056 266.397C423.389 266.08 422.623 265.922 421.756 265.922C420.723 265.922 419.889 266.164 419.256 266.647C418.639 267.114 418.331 267.755 418.331 268.572C418.331 269.172 418.481 269.664 418.781 270.047C419.098 270.43 419.489 270.739 419.956 270.972C420.423 271.205 420.898 271.43 421.381 271.647L423.981 272.772C424.681 273.072 425.314 273.43 425.881 273.847C426.464 274.264 426.923 274.78 427.256 275.397C427.589 276.014 427.756 276.772 427.756 277.672C427.756 278.639 427.506 279.522 427.006 280.322C426.506 281.105 425.789 281.73 424.856 282.197C423.923 282.647 422.814 282.872 421.531 282.872ZM435.984 282.872C434.684 282.872 433.484 282.63 432.384 282.147C431.301 281.664 430.368 281.005 429.584 280.172L430.959 278.572C431.609 279.255 432.376 279.805 433.259 280.222C434.143 280.639 435.059 280.847 436.009 280.847C437.226 280.847 438.168 280.572 438.834 280.022C439.518 279.472 439.859 278.755 439.859 277.872C439.859 277.222 439.718 276.705 439.434 276.322C439.168 275.939 438.801 275.622 438.334 275.372C437.884 275.105 437.368 274.847 436.784 274.597L434.159 273.447C433.593 273.197 433.018 272.88 432.434 272.497C431.868 272.114 431.393 271.614 431.009 270.997C430.626 270.38 430.434 269.63 430.434 268.747C430.434 267.797 430.684 266.964 431.184 266.247C431.684 265.514 432.368 264.939 433.234 264.522C434.101 264.105 435.093 263.897 436.209 263.897C437.309 263.897 438.318 264.105 439.234 264.522C440.168 264.939 440.951 265.48 441.584 266.147L440.384 267.622C439.818 267.105 439.193 266.697 438.509 266.397C437.843 266.08 437.076 265.922 436.209 265.922C435.176 265.922 434.343 266.164 433.709 266.647C433.093 267.114 432.784 267.755 432.784 268.572C432.784 269.172 432.934 269.664 433.234 270.047C433.551 270.43 433.943 270.739 434.409 270.972C434.876 271.205 435.351 271.43 435.834 271.647L438.434 272.772C439.134 273.072 439.768 273.43 440.334 273.847C440.918 274.264 441.376 274.78 441.709 275.397C442.043 276.014 442.209 276.772 442.209 277.672C442.209 278.639 441.959 279.522 441.459 280.322C440.959 281.105 440.243 281.73 439.309 282.197C438.376 282.647 437.268 282.872 435.984 282.872Z" fill="#808080"/>
<path d="M362.355 452.18V433.855H364.655V452.18H362.355ZM369.679 452.18V433.855H372.029L378.729 445.405L380.704 449.18H380.829C380.746 448.263 380.671 447.305 380.604 446.305C380.538 445.305 380.504 444.33 380.504 443.38V433.855H382.704V452.18H380.329L373.654 440.605L371.679 436.855H371.579C371.629 437.771 371.688 438.713 371.754 439.68C371.821 440.63 371.854 441.588 371.854 442.555V452.18H369.679ZM387.746 452.18V433.855H392.321C394.204 433.855 395.787 434.213 397.071 434.93C398.354 435.63 399.321 436.655 399.971 438.005C400.621 439.355 400.946 441.005 400.946 442.955C400.946 444.888 400.621 446.546 399.971 447.93C399.321 449.313 398.362 450.371 397.096 451.105C395.829 451.821 394.271 452.18 392.421 452.18H387.746ZM390.046 450.28H392.121C393.554 450.28 394.746 449.996 395.696 449.43C396.662 448.846 397.379 448.005 397.846 446.905C398.329 445.805 398.571 444.488 398.571 442.955C398.571 441.388 398.329 440.071 397.846 439.005C397.379 437.938 396.662 437.13 395.696 436.58C394.746 436.013 393.554 435.73 392.121 435.73H390.046V450.28ZM404.958 452.18V433.855H415.508V435.805H407.258V441.555H414.208V443.53H407.258V450.205H415.783V452.18H404.958ZM424.754 452.505C423.454 452.505 422.254 452.263 421.154 451.78C420.071 451.296 419.138 450.638 418.354 449.805L419.729 448.205C420.379 448.888 421.146 449.438 422.029 449.855C422.913 450.271 423.829 450.48 424.779 450.48C425.996 450.48 426.938 450.205 427.604 449.655C428.288 449.105 428.629 448.388 428.629 447.505C428.629 446.855 428.488 446.338 428.204 445.955C427.938 445.571 427.571 445.255 427.104 445.005C426.654 444.738 426.138 444.48 425.554 444.23L422.929 443.08C422.363 442.83 421.788 442.513 421.204 442.13C420.638 441.746 420.163 441.246 419.779 440.63C419.396 440.013 419.204 439.263 419.204 438.38C419.204 437.43 419.454 436.596 419.954 435.88C420.454 435.146 421.138 434.571 422.004 434.155C422.871 433.738 423.863 433.53 424.979 433.53C426.079 433.53 427.088 433.738 428.004 434.155C428.938 434.571 429.721 435.113 430.354 435.78L429.154 437.255C428.588 436.738 427.963 436.33 427.279 436.03C426.613 435.713 425.846 435.555 424.979 435.555C423.946 435.555 423.113 435.796 422.479 436.28C421.863 436.746 421.554 437.388 421.554 438.205C421.554 438.805 421.704 439.296 422.004 439.68C422.321 440.063 422.713 440.371 423.179 440.605C423.646 440.838 424.121 441.063 424.604 441.28L427.204 442.405C427.904 442.705 428.538 443.063 429.104 443.48C429.688 443.896 430.146 444.413 430.479 445.03C430.813 445.646 430.979 446.405 430.979 447.305C430.979 448.271 430.729 449.155 430.229 449.955C429.729 450.738 429.013 451.363 428.079 451.83C427.146 452.28 426.038 452.505 424.754 452.505ZM434.572 452.18V433.855H436.872V452.18H434.572ZM449.096 452.505C447.479 452.505 446.046 452.13 444.796 451.38C443.563 450.63 442.588 449.546 441.871 448.13C441.171 446.713 440.821 445.013 440.821 443.03C440.821 441.546 441.029 440.221 441.446 439.055C441.863 437.871 442.446 436.871 443.196 436.055C443.963 435.238 444.854 434.613 445.871 434.18C446.888 433.746 448.004 433.53 449.221 433.53C450.504 433.53 451.571 433.771 452.421 434.255C453.271 434.721 453.963 435.23 454.496 435.78L453.246 437.28C452.779 436.796 452.229 436.388 451.596 436.055C450.979 435.721 450.213 435.555 449.296 435.555C448.063 435.555 446.988 435.855 446.071 436.455C445.154 437.055 444.446 437.913 443.946 439.03C443.446 440.13 443.196 441.438 443.196 442.955C443.196 444.505 443.429 445.846 443.896 446.98C444.379 448.096 445.079 448.963 445.996 449.58C446.913 450.18 448.021 450.48 449.321 450.48C449.971 450.48 450.588 450.388 451.171 450.205C451.771 450.005 452.254 449.738 452.621 449.405V444.605H448.721V442.68H454.746V450.38C454.146 450.996 453.354 451.505 452.371 451.905C451.404 452.305 450.313 452.505 449.096 452.505ZM459.132 452.18V433.855H461.482L468.182 445.405L470.157 449.18H470.282C470.199 448.263 470.124 447.305 470.057 446.305C469.991 445.305 469.957 444.33 469.957 443.38V433.855H472.157V452.18H469.782L463.107 440.605L461.132 436.855H461.032C461.082 437.771 461.141 438.713 461.207 439.68C461.274 440.63 461.307 441.588 461.307 442.555V452.18H459.132Z" fill="#808080"/>
<path d="M368.251 621.852V603.527H370.551V612.727H370.601L378.276 603.527H380.901L375.151 610.477L381.776 621.852H379.201L373.701 612.302L370.551 616.052V621.852H368.251ZM384.413 621.852V603.527H394.963V605.477H386.713V611.227H393.663V613.202H386.713V619.877H395.238V621.852H384.413ZM402.085 621.852V614.752L396.585 603.527H399.035L401.41 608.702C401.71 609.385 402.002 610.052 402.285 610.702C402.568 611.352 402.877 612.027 403.21 612.727H403.31C403.643 612.027 403.96 611.352 404.26 610.702C404.56 610.052 404.86 609.385 405.16 608.702L407.51 603.527H409.91L404.385 614.752V621.852H402.085ZM417.003 622.177C415.703 622.177 414.503 621.935 413.403 621.452C412.319 620.968 411.386 620.31 410.603 619.477L411.978 617.877C412.628 618.56 413.394 619.11 414.278 619.527C415.161 619.943 416.078 620.152 417.028 620.152C418.244 620.152 419.186 619.877 419.853 619.327C420.536 618.777 420.878 618.06 420.878 617.177C420.878 616.527 420.736 616.01 420.453 615.627C420.186 615.243 419.819 614.927 419.353 614.677C418.903 614.41 418.386 614.152 417.803 613.902L415.178 612.752C414.611 612.502 414.036 612.185 413.453 611.802C412.886 611.418 412.411 610.918 412.028 610.302C411.644 609.685 411.453 608.935 411.453 608.052C411.453 607.102 411.703 606.268 412.203 605.552C412.703 604.818 413.386 604.243 414.253 603.827C415.119 603.41 416.111 603.202 417.228 603.202C418.328 603.202 419.336 603.41 420.253 603.827C421.186 604.243 421.969 604.785 422.603 605.452L421.403 606.927C420.836 606.41 420.211 606.002 419.528 605.702C418.861 605.385 418.094 605.227 417.228 605.227C416.194 605.227 415.361 605.468 414.728 605.952C414.111 606.418 413.803 607.06 413.803 607.877C413.803 608.477 413.953 608.968 414.253 609.352C414.569 609.735 414.961 610.043 415.428 610.277C415.894 610.51 416.369 610.735 416.853 610.952L419.453 612.077C420.153 612.377 420.786 612.735 421.353 613.152C421.936 613.568 422.394 614.085 422.728 614.702C423.061 615.318 423.228 616.077 423.228 616.977C423.228 617.943 422.978 618.827 422.478 619.627C421.978 620.41 421.261 621.035 420.328 621.502C419.394 621.952 418.286 622.177 417.003 622.177ZM426.82 621.852V603.527H429.12V611.202H437.67V603.527H439.995V621.852H437.67V613.202H429.12V621.852H426.82ZM451.759 622.177C450.226 622.177 448.867 621.793 447.684 621.027C446.517 620.243 445.601 619.135 444.934 617.702C444.267 616.268 443.934 614.577 443.934 612.627C443.934 610.66 444.267 608.977 444.934 607.577C445.601 606.16 446.517 605.077 447.684 604.327C448.867 603.577 450.226 603.202 451.759 603.202C453.292 603.202 454.642 603.585 455.809 604.352C456.992 605.102 457.917 606.177 458.584 607.577C459.251 608.977 459.584 610.66 459.584 612.627C459.584 614.577 459.251 616.268 458.584 617.702C457.917 619.135 456.992 620.243 455.809 621.027C454.642 621.793 453.292 622.177 451.759 622.177ZM451.759 620.152C452.859 620.152 453.817 619.843 454.634 619.227C455.451 618.61 456.084 617.735 456.534 616.602C456.984 615.468 457.209 614.143 457.209 612.627C457.209 611.093 456.984 609.777 456.534 608.677C456.084 607.56 455.451 606.71 454.634 606.127C453.817 605.527 452.859 605.227 451.759 605.227C450.676 605.227 449.717 605.527 448.884 606.127C448.067 606.71 447.434 607.56 446.984 608.677C446.534 609.777 446.309 611.093 446.309 612.627C446.309 614.143 446.534 615.468 446.984 616.602C447.434 617.735 448.067 618.61 448.884 619.227C449.717 619.843 450.676 620.152 451.759 620.152ZM466.631 621.852V605.477H461.081V603.527H474.506V605.477H468.956V621.852H466.631Z" fill="#808080"/>
<path d="M557.121 282.547V264.222H562.846C564.096 264.222 565.196 264.389 566.146 264.722C567.113 265.039 567.871 265.572 568.421 266.322C568.971 267.072 569.246 268.08 569.246 269.347C569.246 270.564 568.971 271.58 568.421 272.397C567.871 273.197 567.113 273.797 566.146 274.197C565.196 274.58 564.096 274.772 562.846 274.772H559.421V282.547H557.121ZM559.421 272.922H562.496C563.93 272.922 565.03 272.63 565.796 272.047C566.563 271.447 566.946 270.547 566.946 269.347C566.946 268.147 566.563 267.305 565.796 266.822C565.03 266.339 563.93 266.097 562.496 266.097H559.421V272.922ZM567.171 282.547L562.371 274.172L564.196 272.947L569.771 282.547H567.171ZM572.99 282.547V264.222H583.54V266.172H575.29V271.922H582.24V273.897H575.29V280.572H583.815V282.547H572.99ZM585.287 282.547L591.487 264.222H594.062L600.287 282.547H597.837L594.637 272.297C594.304 271.247 593.987 270.222 593.687 269.222C593.387 268.205 593.087 267.164 592.787 266.097H592.687C592.404 267.164 592.104 268.205 591.787 269.222C591.487 270.222 591.179 271.247 590.862 272.297L587.612 282.547H585.287ZM588.512 276.947V275.122H596.962V276.947H588.512ZM609.48 282.872C608.347 282.872 607.289 282.664 606.305 282.247C605.339 281.814 604.497 281.189 603.78 280.372C603.064 279.555 602.505 278.564 602.105 277.397C601.705 276.214 601.505 274.88 601.505 273.397C601.505 271.914 601.705 270.589 602.105 269.422C602.522 268.239 603.097 267.239 603.83 266.422C604.564 265.605 605.422 264.98 606.405 264.547C607.389 264.114 608.464 263.897 609.63 263.897C610.747 263.897 611.73 264.13 612.58 264.597C613.43 265.047 614.122 265.564 614.655 266.147L613.405 267.647C612.922 267.13 612.372 266.714 611.755 266.397C611.139 266.08 610.439 265.922 609.655 265.922C608.505 265.922 607.497 266.222 606.63 266.822C605.764 267.422 605.089 268.28 604.605 269.397C604.122 270.497 603.88 271.805 603.88 273.322C603.88 274.872 604.114 276.214 604.58 277.347C605.047 278.464 605.705 279.33 606.555 279.947C607.405 280.547 608.414 280.847 609.58 280.847C610.447 280.847 611.222 280.664 611.905 280.297C612.605 279.93 613.247 279.422 613.83 278.772L615.105 280.247C614.389 281.08 613.572 281.73 612.655 282.197C611.739 282.647 610.68 282.872 609.48 282.872ZM621.761 282.547V266.172H616.211V264.222H629.636V266.172H624.086V282.547H621.761Z" fill="#808080"/>
<path d="M557.085 452.18V433.855H562.31C563.676 433.855 564.876 434.03 565.91 434.38C566.943 434.713 567.743 435.271 568.31 436.055C568.876 436.838 569.16 437.896 569.16 439.23C569.16 440.513 568.876 441.571 568.31 442.405C567.743 443.238 566.951 443.863 565.935 444.28C564.918 444.68 563.743 444.88 562.41 444.88H559.385V452.18H557.085ZM559.385 443.005H562.11C563.71 443.005 564.901 442.705 565.685 442.105C566.468 441.505 566.86 440.546 566.86 439.23C566.86 437.896 566.451 436.98 565.635 436.48C564.835 435.98 563.626 435.73 562.01 435.73H559.385V443.005ZM572.905 452.18V433.855H575.205V452.18H572.905ZM587.429 452.505C585.812 452.505 584.379 452.13 583.129 451.38C581.896 450.63 580.921 449.546 580.204 448.13C579.504 446.713 579.154 445.013 579.154 443.03C579.154 441.546 579.362 440.221 579.779 439.055C580.196 437.871 580.779 436.871 581.529 436.055C582.296 435.238 583.187 434.613 584.204 434.18C585.221 433.746 586.337 433.53 587.554 433.53C588.837 433.53 589.904 433.771 590.754 434.255C591.604 434.721 592.296 435.23 592.829 435.78L591.579 437.28C591.112 436.796 590.562 436.388 589.929 436.055C589.312 435.721 588.546 435.555 587.629 435.555C586.396 435.555 585.321 435.855 584.404 436.455C583.487 437.055 582.779 437.913 582.279 439.03C581.779 440.13 581.529 441.438 581.529 442.955C581.529 444.505 581.762 445.846 582.229 446.98C582.712 448.096 583.412 448.963 584.329 449.58C585.246 450.18 586.354 450.48 587.654 450.48C588.304 450.48 588.921 450.388 589.504 450.205C590.104 450.005 590.587 449.738 590.954 449.405V444.605H587.054V442.68H593.079V450.38C592.479 450.996 591.687 451.505 590.704 451.905C589.737 452.305 588.646 452.505 587.429 452.505ZM597.465 452.18V433.855H600.24L603.74 443.655C603.974 444.271 604.199 444.905 604.415 445.555C604.632 446.205 604.849 446.846 605.065 447.48H605.165C605.399 446.846 605.615 446.205 605.815 445.555C606.032 444.905 606.24 444.271 606.44 443.655L609.94 433.855H612.715V452.18H610.565V442.03C610.565 441.496 610.582 440.921 610.615 440.305C610.649 439.671 610.69 439.038 610.74 438.405C610.79 437.755 610.832 437.163 610.865 436.63H610.765L609.29 440.805L605.84 450.33H604.29L600.815 440.805L599.34 436.63H599.24C599.307 437.163 599.357 437.755 599.39 438.405C599.44 439.038 599.474 439.671 599.49 440.305C599.524 440.921 599.54 441.496 599.54 442.03V452.18H597.465ZM615.329 452.18L621.529 433.855H624.104L630.329 452.18H627.879L624.679 441.93C624.345 440.88 624.029 439.855 623.729 438.855C623.429 437.838 623.129 436.796 622.829 435.73H622.729C622.445 436.796 622.145 437.838 621.829 438.855C621.529 439.855 621.22 440.88 620.904 441.93L617.654 452.18H615.329ZM618.554 446.58V444.755H627.004V446.58H618.554Z" fill="#808080"/>
<g clip-path="url(#clip0_1594_10962)">
<rect x="36.499" y="164" width="80" height="80" rx="12" fill="#E7A328"/>
<path d="M101.499 179L95.249 224.312L76.499 230.562L57.749 224.312L51.499 179H101.499Z" stroke="white" stroke-width="3.5" stroke-linecap="round" stroke-linejoin="round"/>
<path d="M62.4365 191.5H71.8115V216.5L65.5615 213.375" stroke="white" stroke-width="3.5" stroke-linecap="round" stroke-linejoin="round"/>
<path d="M90.5615 191.5H82.749C82.3346 191.5 81.9372 191.665 81.6442 191.958C81.3511 192.251 81.1865 192.648 81.1865 193.062V202.438C81.1865 202.852 81.3511 203.249 81.6442 203.542C81.9372 203.835 82.3346 204 82.749 204H87.1959C87.4196 204 87.6406 204.048 87.8441 204.141C88.0476 204.234 88.2288 204.369 88.3754 204.538C88.522 204.707 88.6307 204.905 88.6941 205.12C88.7575 205.334 88.7741 205.56 88.7428 205.781L87.4365 214.938L81.1865 216.5" stroke="white" stroke-width="3.5" stroke-linecap="round" stroke-linejoin="round"/>
</g>
<g clip-path="url(#clip1_1594_10962)">
<rect x="36.499" y="333.633" width="80" height="80" rx="12" fill="white"/>
<path d="M51.8605 391.633V354.383H64.9605C67.6939 354.383 70.1772 354.766 72.4105 355.533C74.6772 356.266 76.4772 357.516 77.8105 359.283C79.1772 361.049 79.8605 363.466 79.8605 366.533C79.8605 369.466 79.1772 371.883 77.8105 373.783C76.4772 375.649 74.6939 377.033 72.4605 377.933C70.2272 378.833 67.7939 379.283 65.1605 379.283H60.8105V391.633H51.8605ZM60.8105 372.233H64.7105C66.8772 372.233 68.4939 371.749 69.5605 370.783C70.6272 369.783 71.1605 368.366 71.1605 366.533C71.1605 364.666 70.5772 363.366 69.4105 362.633C68.2772 361.866 66.6272 361.483 64.4605 361.483H60.8105V372.233Z" fill="#86A4FF"/>
<path d="M91.5365 392.333C89.7032 392.333 87.7865 391.966 85.7865 391.233C83.7865 390.499 82.0532 389.533 80.5865 388.333L84.5365 382.783C85.8365 383.749 87.0699 384.499 88.2365 385.033C89.4365 385.533 90.6032 385.783 91.7365 385.783C92.9032 385.783 93.7532 385.583 94.2865 385.183C94.8199 384.783 95.0865 384.233 95.0865 383.533C95.0865 382.966 94.8199 382.483 94.2865 382.083C93.7532 381.683 93.0532 381.316 92.1865 380.983C91.3199 380.616 90.4032 380.249 89.4365 379.883C88.3032 379.416 87.1699 378.833 86.0365 378.133C84.9365 377.433 84.0199 376.549 83.2865 375.483C82.5532 374.383 82.1865 373.049 82.1865 371.483C82.1865 369.683 82.6365 368.116 83.5365 366.783C84.4699 365.416 85.7532 364.366 87.3865 363.633C89.0532 362.866 90.9865 362.483 93.1865 362.483C95.4199 362.483 97.3699 362.866 99.0365 363.633C100.703 364.366 102.137 365.199 103.337 366.133L99.3865 371.433C98.3532 370.699 97.3365 370.116 96.3365 369.683C95.3699 369.249 94.4199 369.033 93.4865 369.033C92.4532 369.033 91.6865 369.216 91.1865 369.583C90.7199 369.916 90.4865 370.416 90.4865 371.083C90.4865 371.649 90.7199 372.116 91.1865 372.483C91.6865 372.849 92.3532 373.183 93.1865 373.483C94.0199 373.783 94.9199 374.116 95.8865 374.483C96.7865 374.816 97.6699 375.216 98.5365 375.683C99.4365 376.116 100.253 376.666 100.987 377.333C101.72 377.999 102.303 378.799 102.737 379.733C103.17 380.633 103.387 381.733 103.387 383.033C103.387 384.766 102.937 386.349 102.037 387.783C101.137 389.183 99.8032 390.299 98.0365 391.133C96.3032 391.933 94.1365 392.333 91.5365 392.333Z" fill="#86A4FF"/>
</g>
<rect x="38.249" y="335.383" width="76.5" height="76.5" rx="10.25" stroke="#86A4FF" stroke-width="3.5"/>
<g clip-path="url(#clip2_1594_10962)">
<rect x="208.499" y="164" width="80" height="80" rx="12" fill="white"/>
<path d="M273.789 179L267.539 224.312L248.789 230.562L230.039 224.312L223.789 179H273.789Z" stroke="#86A4FF" stroke-width="3.5" stroke-linecap="round" stroke-linejoin="round"/>
<path d="M259.727 191.5H237.852L239.414 204H258.164L256.602 214.938L248.789 217.281L240.977 214.938L240.664 213.375" stroke="#86A4FF" stroke-width="3.5" stroke-linecap="round" stroke-linejoin="round"/>
</g>
<rect x="210.249" y="165.75" width="76.5" height="76.5" rx="10.25" stroke="#86A4FF" stroke-width="3.5"/>
<rect x="210.249" y="335.383" width="76.5" height="76.5" rx="10.25" fill="white"/>
<rect x="210.249" y="335.383" width="76.5" height="76.5" rx="10.25" stroke="#86A4FF" stroke-width="3.5"/>
<path d="M221.161 392.633L232.711 355.383H243.411L254.961 392.633H245.561L240.911 374.033C240.411 372.166 239.911 370.183 239.411 368.083C238.944 365.983 238.461 363.983 237.961 362.083H237.761C237.327 364.016 236.861 366.033 236.361 368.133C235.861 370.199 235.377 372.166 234.911 374.033L230.261 392.633H221.161ZM229.011 384.083V377.183H247.011V384.083H229.011Z" fill="#86A4FF"/>
<path d="M262.037 392.633V364.183H270.937V392.633H262.037ZM266.487 360.233C264.987 360.233 263.787 359.816 262.887 358.983C261.987 358.149 261.537 357.033 261.537 355.633C261.537 354.266 261.987 353.166 262.887 352.333C263.787 351.499 264.987 351.083 266.487 351.083C267.953 351.083 269.137 351.499 270.037 352.333C270.97 353.166 271.437 354.266 271.437 355.633C271.437 357.033 270.97 358.149 270.037 358.983C269.137 359.816 267.953 360.233 266.487 360.233Z" fill="#86A4FF"/>
<g clip-path="url(#clip3_1594_10962)">
<rect x="208.499" y="503.305" width="80" height="80" rx="12" fill="#86A4FF"/>
<path d="M214.395 530.439C220.993 522.977 221.774 509.24 221.339 503.305H207.393V543.773C215.766 547.015 224.181 560.389 224.476 562.081C224.711 563.434 225.569 563.425 225.968 563.251C228.067 559.283 224.632 549.843 222.651 545.619V543.773L223.914 541.96C227.476 541.021 239.471 534.881 242.541 532.648C244.997 530.862 245.46 528.65 245.384 527.768C243.745 514.353 231.654 505.104 230.665 504.418C229.874 503.87 229.554 504.479 229.493 504.852C229.11 521.002 221.173 532.337 219.094 535.306L219.044 535.377C217.446 537.661 215.687 537.606 215.008 537.294L213.091 535.867C211.819 534.203 213.43 531.555 214.395 530.439Z" fill="white"/>
<path d="M247.112 532.806C246.726 532.1 246.198 532.33 245.982 532.533C244.39 533.777 240.833 536.475 239.337 537.312C237.467 538.358 231.253 541.053 229.319 542.448C227.385 543.843 228.558 547.425 229.7 547.9C230.841 548.376 236.801 548.376 237.244 548.756C237.688 549.137 236.801 549.168 235.723 549.549C234.645 549.929 234.36 551.831 235.374 552.37C236.389 552.909 238.703 555.097 241.144 556.174C243.585 557.252 244.06 555.826 244.187 554.875C244.314 553.924 243.68 553.67 243.775 553.131C243.87 552.592 244.409 553.67 245.709 553.297C247.008 552.924 249.735 552.085 250.781 552.085C251.827 552.085 252.461 552.814 249.893 553.67C247.325 554.526 245.709 557.855 244.409 561.595C243.369 564.588 240.615 564.237 239.368 563.688C238.132 563.138 235.399 561.906 234.36 561.373C233.06 560.708 230.999 559.535 231.253 557.601C231.507 555.667 231.997 549.517 230.714 549.549C229.432 549.581 230.017 551.229 230.017 552.085C230.017 552.941 229.668 555.889 229.002 559.186C228.469 561.824 230.776 563.465 231.997 563.955C239.293 566.546 254.06 579.321 255.526 580.466C256.992 581.611 258.117 581.41 258.539 579.964C258.961 578.518 252.353 572.654 251.811 571.83C251.377 571.171 251.836 571.13 252.12 571.191C254.565 572.124 259.714 578.657 260.518 579.107C261.323 579.558 261.337 579.674 264.476 577.627C269.251 574.515 268.241 568.842 268.241 568.295C268.241 567.748 272.81 562.085 276.929 559.157C280.224 556.814 286.015 550.993 288.499 548.375V540.825C283.969 544.171 274.259 551.166 271.664 552.374C268.42 553.884 264.31 554.471 262.855 553.297C261.692 552.357 262.371 551.47 262.855 551.144C264.449 550.053 267.106 546.474 267.945 544.32C268.616 542.598 267.292 542.708 266.547 542.978L262.548 544.544C256.575 546.446 252.546 542.838 251.278 540.797C250.05 538.428 247.497 533.513 247.112 532.806Z" fill="white"/>
<path d="M259.192 571.374C261.353 570.208 265.057 573.578 261.353 577.77C259.619 576.381 256.584 573.237 259.192 571.374Z" fill="#86A4FF"/>
</g>
<g clip-path="url(#clip4_1594_10962)">
<rect x="380.499" y="164" width="80" height="80" rx="12" fill="white"/>
<path d="M445.914 179L439.664 224.312L420.914 230.562L402.164 224.312L395.914 179H445.914Z" stroke="#86A4FF" stroke-width="3.5" stroke-linecap="round" stroke-linejoin="round"/>
<path d="M409.977 191.5H431.852L417.789 204H430.289L428.727 214.938L420.914 217.281L413.102 214.938L412.789 213.375" stroke="#86A4FF" stroke-width="3.5" stroke-linecap="round" stroke-linejoin="round"/>
</g>
<rect x="382.249" y="165.75" width="76.5" height="76.5" rx="10.25" stroke="#86A4FF" stroke-width="3.5"/>
<rect x="382.249" y="335.383" width="76.5" height="76.5" rx="10.25" fill="white"/>
<rect x="382.249" y="335.383" width="76.5" height="76.5" rx="10.25" stroke="#86A4FF" stroke-width="3.5"/>
<path d="M399.861 392.633V355.383H408.811V392.633H399.861Z" fill="#86A4FF"/>
<path d="M427.361 393.333C424.994 393.333 422.927 392.733 421.161 391.533C419.427 390.333 418.077 388.616 417.111 386.383C416.177 384.149 415.711 381.483 415.711 378.383C415.711 375.283 416.277 372.633 417.411 370.433C418.544 368.199 420.011 366.483 421.811 365.283C423.611 364.083 425.494 363.483 427.461 363.483C429.027 363.483 430.327 363.749 431.361 364.283C432.394 364.816 433.377 365.533 434.311 366.433L434.011 362.183V352.683H442.911V392.633H435.661L435.011 389.883H434.811C433.811 390.883 432.661 391.716 431.361 392.383C430.061 393.016 428.727 393.333 427.361 393.333ZM429.711 386.033C430.577 386.033 431.344 385.866 432.011 385.533C432.711 385.199 433.377 384.566 434.011 383.633V372.433C433.344 371.799 432.627 371.366 431.861 371.133C431.094 370.866 430.327 370.733 429.561 370.733C428.761 370.733 427.994 370.999 427.261 371.533C426.561 372.066 425.977 372.883 425.511 373.983C425.077 375.083 424.861 376.516 424.861 378.283C424.861 380.083 425.044 381.566 425.411 382.733C425.811 383.866 426.377 384.699 427.111 385.233C427.844 385.766 428.711 386.033 429.711 386.033Z" fill="#86A4FF"/>
<path d="M435.027 530.498C425.18 519.344 406.878 514.684 398.957 513.748C411.422 504.464 425.185 506.244 430.508 508.294C433.936 517.331 434.949 526.862 435.027 530.498Z" fill="#86A4FF"/>
<path d="M439.191 549.628C443.115 534.411 438.557 517.013 435.787 510.216C448.841 515.687 454.708 528.759 456.01 534.611C452.726 540.458 443.429 547.058 439.191 549.628Z" fill="#86A4FF"/>
<path d="M424.675 562.342C438.771 558.738 452.039 546.291 456.911 540.518C458.593 554.133 450.537 565.612 446.299 569.65C437.809 569.17 428.345 564.578 424.675 562.342Z" fill="#86A4FF"/>
<path d="M410.522 578.656C407.208 574.478 405.956 562.203 405.744 556.588C414.504 567.652 433.429 572.228 441.797 573.133C430.426 581.766 416.209 580.412 410.522 578.656Z" fill="#86A4FF"/>
<path d="M405.375 576.634C398.832 563.307 400.207 544.866 401.713 537.311C394.305 540.244 387.448 548.328 384.946 552.003C387.836 566.69 399.769 574.543 405.375 576.634Z" fill="#86A4FF"/>
<path d="M416.503 524.354C409.248 519.812 398.881 517.742 394.605 517.275C384.047 528.129 383.225 541.459 384.135 546.768C392.805 534.309 409.326 526.634 416.503 524.354Z" fill="#86A4FF"/>
<path d="M410.756 533.718L424.053 530.025L433.76 540.021L430.122 553.181L417.015 556.588L407.172 546.761L410.756 533.718Z" fill="#86A4FF"/>
<g clip-path="url(#clip5_1594_10962)">
<rect x="552.499" y="164" width="80" height="80" rx="12" fill="white"/>
<path d="M574.967 194.625C566.727 196.75 561.352 200.391 561.352 204.547C561.352 211.131 575.117 216.5 592.133 216.5C594.445 216.5 596.07 216.378 598.227 216.197" stroke="#86A4FF" stroke-width="3.5" stroke-linecap="round" stroke-linejoin="round"/>
<path d="M585.844 216.188C584.554 214.326 583.326 212.648 582.157 210.563C573.56 195.251 571.257 180.032 577.063 176.585C580.657 174.407 586.585 177.376 592.607 183.629" stroke="#86A4FF" stroke-width="3.5" stroke-linecap="round" stroke-linejoin="round"/>
<path d="M575.191 214.584C572.998 222.984 573.441 229.322 576.941 231.444C582.513 234.819 593.776 225.325 602.076 210.181C603.201 208.087 604.21 206.028 605.101 204" stroke="#86A4FF" stroke-width="3.5" stroke-linecap="round" stroke-linejoin="round"/>
<path d="M592.602 224.375C598.627 230.625 604.53 233.594 608.158 231.416C613.939 227.972 611.661 212.753 603.055 197.438C601.855 195.322 600.627 193.675 599.367 191.812" stroke="#86A4FF" stroke-width="3.5" stroke-linecap="round" stroke-linejoin="round"/>
<path d="M610.289 213.375C618.452 211.228 623.852 207.594 623.852 203.45C623.852 196.856 610.077 191.5 593.086 191.5C590.752 191.5 589.13 191.591 586.977 191.772" stroke="#86A4FF" stroke-width="3.5" stroke-linecap="round" stroke-linejoin="round"/>
<path d="M580.102 203.999C580.992 201.937 581.998 199.912 583.127 197.818C591.398 182.68 602.667 173.162 608.27 176.565C611.739 178.687 612.214 185.021 610.02 193.418" stroke="#86A4FF" stroke-width="3.5" stroke-linecap="round" stroke-linejoin="round"/>
<path d="M593.416 204.045H593.385C593.354 204.451 593.01 204.795 592.572 204.795C592.363 204.784 592.166 204.695 592.02 204.544C591.875 204.393 591.793 204.192 591.791 203.982C591.791 203.545 592.135 203.201 592.541 203.201H592.51C592.916 203.17 593.291 203.545 593.291 203.951" stroke="#86A4FF" stroke-width="5" stroke-linecap="round" stroke-linejoin="round"/>
</g>
<rect x="554.249" y="165.75" width="76.5" height="76.5" rx="10.25" stroke="#86A4FF" stroke-width="3.5"/>
<rect x="554.249" y="335.383" width="76.5" height="76.5" rx="10.25" fill="white"/>
<rect x="554.249" y="335.383" width="76.5" height="76.5" rx="10.25" stroke="#86A4FF" stroke-width="3.5"/>
<path d="M573.541 356.03C573.541 353.516 574.54 351.105 576.317 349.327C578.095 347.549 580.506 346.551 583.02 346.551H592.499V365.509H583.02C580.506 365.509 578.095 364.51 576.317 362.733C574.54 360.955 573.541 358.544 573.541 356.03Z" stroke="#86A4FF" stroke-width="3" stroke-linecap="round" stroke-linejoin="round"/>
<path d="M592.499 346.551H601.978C603.223 346.551 604.456 346.796 605.606 347.272C606.756 347.749 607.801 348.447 608.681 349.327C609.561 350.207 610.259 351.252 610.736 352.402C611.212 353.552 611.457 354.785 611.457 356.03C611.457 357.275 611.212 358.507 610.736 359.657C610.259 360.808 609.561 361.853 608.681 362.733C607.801 363.613 606.756 364.311 605.606 364.788C604.456 365.264 603.223 365.509 601.978 365.509H592.499V346.551Z" stroke="#86A4FF" stroke-width="3" stroke-linecap="round" stroke-linejoin="round"/>
<path d="M592.499 374.987C592.499 373.742 592.744 372.51 593.221 371.359C593.697 370.209 594.395 369.164 595.275 368.284C596.156 367.404 597.201 366.706 598.351 366.229C599.501 365.753 600.733 365.508 601.978 365.508C603.223 365.508 604.456 365.753 605.606 366.229C606.756 366.706 607.801 367.404 608.681 368.284C609.561 369.164 610.259 370.209 610.736 371.359C611.212 372.51 611.457 373.742 611.457 374.987C611.457 376.232 611.212 377.464 610.736 378.614C610.259 379.765 609.561 380.81 608.681 381.69C607.801 382.57 606.756 383.268 605.606 383.745C604.456 384.221 603.223 384.466 601.978 384.466C600.733 384.466 599.501 384.221 598.351 383.745C597.201 383.268 596.156 382.57 595.275 381.69C594.395 380.81 593.697 379.765 593.221 378.614C592.744 377.464 592.499 376.232 592.499 374.987Z" stroke="#86A4FF" stroke-width="3" stroke-linecap="round" stroke-linejoin="round"/>
<path d="M573.541 393.944C573.541 391.43 574.54 389.019 576.317 387.241C578.095 385.464 580.506 384.465 583.02 384.465H592.499V393.944C592.499 396.458 591.501 398.869 589.723 400.647C587.945 402.424 585.534 403.423 583.02 403.423C580.506 403.423 578.095 402.424 576.317 400.647C574.54 398.869 573.541 396.458 573.541 393.944Z" stroke="#86A4FF" stroke-width="3" stroke-linecap="round" stroke-linejoin="round"/>
<path d="M573.541 374.987C573.541 372.473 574.54 370.062 576.317 368.284C578.095 366.507 580.506 365.508 583.02 365.508H592.499V384.466H583.02C580.506 384.466 578.095 383.467 576.317 381.69C574.54 379.912 573.541 377.501 573.541 374.987Z" stroke="#86A4FF" stroke-width="3" stroke-linecap="round" stroke-linejoin="round"/>
<rect width="5" height="20" transform="translate(36 259.547)" fill="#7973F3"/>
<rect width="6" height="20" transform="translate(47 259.547)" fill="#7973F3"/>
<rect width="5" height="20" transform="translate(58 259.547)" fill="#89A7FF"/>
<rect width="5" height="20" transform="translate(80 259.547)" fill="#99D0EF"/>
<rect width="5" height="20" transform="translate(102 259.547)" fill="#C2E4F6"/>
<rect width="5" height="20" transform="translate(69 259.547)" fill="#89A7FF"/>
<rect width="5" height="20" transform="translate(91 259.547)" fill="#99D0EF"/>
<rect width="5" height="20" transform="translate(113 259.547)" fill="#C2E4F6"/>
<path d="M104.848 523.93L86.5068 504.438V520.226C86.5068 523.429 89.0273 524.03 90.2876 523.93H104.848Z" fill="#86A4FF"/>
<path d="M83.3844 521.344V502.078C75.0492 502.052 57.2107 502 52.5381 502C47.8655 502 46.4694 506.096 46.3555 508.144V536.074H93.5666C96.3085 536.074 97.3561 537.707 97.5371 538.524V565.868C97.5371 568.623 95.1895 569.455 94.0157 569.528H46.3655C46.3655 575.761 50.4122 577.883 52.4356 578.165H97.2795C104.951 578.165 107.002 572.831 107.069 570.163V527.265H91.1583C85.2512 527.265 83.5145 523.318 83.3844 521.344Z" fill="#86A4FF"/>
<rect x="34" y="539.172" width="60.5801" height="27.1133" fill="#86A4FF"/>
<path d="M52.4843 559.584C51.5777 559.584 50.731 559.418 49.9443 559.084C49.171 558.738 48.4977 558.238 47.9243 557.584C47.351 556.931 46.9043 556.138 46.5843 555.204C46.2643 554.258 46.1043 553.191 46.1043 552.004C46.1043 550.818 46.2643 549.758 46.5843 548.824C46.9177 547.878 47.3777 547.078 47.9643 546.424C48.551 545.771 49.2377 545.271 50.0243 544.924C50.811 544.578 51.671 544.404 52.6043 544.404C53.4977 544.404 54.2843 544.591 54.9643 544.964C55.6443 545.324 56.1977 545.738 56.6243 546.204L55.6243 547.404C55.2377 546.991 54.7977 546.658 54.3043 546.404C53.811 546.151 53.251 546.024 52.6243 546.024C51.7043 546.024 50.8977 546.264 50.2043 546.744C49.511 547.224 48.971 547.911 48.5843 548.804C48.1977 549.684 48.0043 550.731 48.0043 551.944C48.0043 553.184 48.191 554.258 48.5643 555.164C48.9377 556.058 49.4643 556.751 50.1443 557.244C50.8243 557.724 51.631 557.964 52.5643 557.964C53.2577 557.964 53.8777 557.818 54.4243 557.524C54.9843 557.231 55.4977 556.824 55.9643 556.304L56.9843 557.484C56.411 558.151 55.7577 558.671 55.0243 559.044C54.291 559.404 53.4443 559.584 52.4843 559.584ZM57.7782 559.324L62.7382 544.664H64.7982L69.7782 559.324H67.8182L65.2582 551.124C64.9916 550.284 64.7382 549.464 64.4982 548.664C64.2582 547.851 64.0182 547.018 63.7782 546.164H63.6982C63.4716 547.018 63.2316 547.851 62.9782 548.664C62.7382 549.464 62.4916 550.284 62.2382 551.124L59.6382 559.324H57.7782ZM60.3582 554.844V553.384H67.1182V554.844H60.3582ZM71.8862 559.324V544.664H75.5462C77.0529 544.664 78.3195 544.951 79.3462 545.524C80.3729 546.084 81.1462 546.904 81.6662 547.984C82.1862 549.064 82.4462 550.384 82.4462 551.944C82.4462 553.491 82.1862 554.818 81.6662 555.924C81.1462 557.031 80.3795 557.878 79.3662 558.464C78.3529 559.038 77.1062 559.324 75.6262 559.324H71.8862ZM73.7262 557.804H75.3862C76.5329 557.804 77.4862 557.578 78.2462 557.124C79.0195 556.658 79.5929 555.984 79.9662 555.104C80.3529 554.224 80.5462 553.171 80.5462 551.944C80.5462 550.691 80.3529 549.638 79.9662 548.784C79.5929 547.931 79.0195 547.284 78.2462 546.844C77.4862 546.391 76.5329 546.164 75.3862 546.164H73.7262V557.804Z" fill="white"/>
<defs>
<clipPath id="clip0_1594_10962">
<rect x="36.499" y="164" width="80" height="80" rx="12" fill="white"/>
</clipPath>
<clipPath id="clip1_1594_10962">
<rect x="36.499" y="333.633" width="80" height="80" rx="12" fill="white"/>
</clipPath>
<clipPath id="clip2_1594_10962">
<rect x="208.499" y="164" width="80" height="80" rx="12" fill="white"/>
</clipPath>
<clipPath id="clip3_1594_10962">
<rect x="208.499" y="503.305" width="80" height="80" rx="12" fill="white"/>
</clipPath>
<clipPath id="clip4_1594_10962">
<rect x="380.499" y="164" width="80" height="80" rx="12" fill="white"/>
</clipPath>
<clipPath id="clip5_1594_10962">
<rect x="552.499" y="164" width="80" height="80" rx="12" fill="white"/>
</clipPath>
</defs>
</svg>
