<?xml version="1.0" encoding="UTF-8"?>
<svg id="_레이어_1" data-name="레이어 1" xmlns="http://www.w3.org/2000/svg" xmlns:xlink="http://www.w3.org/1999/xlink" viewBox="0 0 1920 960">
  <defs>
    <style>
      .cls-1 {
        stroke-width: 2.5px;
      }

      .cls-1, .cls-2, .cls-3, .cls-4 {
        fill: none;
      }

      .cls-1, .cls-3, .cls-4 {
        stroke-miterlimit: 10;
      }

      .cls-1, .cls-4 {
        stroke: #0b42a1;
      }

      .cls-3 {
        stroke: #023586;
      }

      .cls-5 {
        clip-path: url(#clippath);
      }
    </style>
    <clipPath id="clippath">
      <rect class="cls-2" y="-.57" width="1920" height="961.13"/>
    </clipPath>
  </defs>
  <g class="cls-5">
    <g>
      <circle class="cls-4" cx="393.24" cy="252.17" r="16.56"/>
      <circle class="cls-4" cx="393.24" cy="252.17" r="52.51"/>
      <line class="cls-1" x1="387.9" y1="211" x2="393.24" y2="215.03"/>
      <line class="cls-1" x1="367.29" y1="222.63" x2="372.43" y2="218.34"/>
      <line class="cls-1" x1="355.23" y1="240.48" x2="354.99" y2="233.8"/>
      <line class="cls-1" x1="353.9" y1="273.6" x2="353.66" y2="266.91"/>
      <line class="cls-1" x1="360.9" y1="256.05" x2="360.67" y2="249.37"/>
      <line class="cls-1" x1="372.08" y1="241.44" x2="366.74" y2="237.41"/>
      <line class="cls-1" x1="372.08" y1="269.66" x2="366.74" y2="265.63"/>
      <line class="cls-1" x1="374.11" y1="289" x2="367.82" y2="286.72"/>
      <line class="cls-1" x1="377.7" y1="229.55" x2="382.84" y2="225.26"/>
      <line class="cls-1" x1="393.63" y1="228.02" x2="400.21" y2="226.79"/>
      <line class="cls-1" x1="387.23" y1="275.14" x2="393.9" y2="275.7"/>
      <line class="cls-1" x1="393.9" y1="288.61" x2="399.24" y2="292.64"/>
      <line class="cls-1" x1="412.84" y1="216.47" x2="419.37" y2="217.91"/>
      <line class="cls-1" x1="414.76" y1="234.35" x2="420.48" y2="237.81"/>
      <line class="cls-1" x1="422.18" y1="266.51" x2="428.63" y2="264.74"/>
      <line class="cls-1" x1="415.75" y1="252.71" x2="422.18" y2="250.86"/>
      <line class="cls-1" x1="414.96" y1="285.32" x2="420.28" y2="281.27"/>
      <line class="cls-1" x1="405.7" y1="280.22" x2="410.64" y2="275.71"/>
      <line class="cls-1" x1="433.21" y1="253.28" x2="433.17" y2="246.59"/>
    </g>
    <g>
      <circle class="cls-4" cx="1385.46" cy="157.51" r="16.56"/>
      <circle class="cls-4" cx="1385.46" cy="157.51" r="52.51"/>
      <line class="cls-1" x1="1380.12" y1="116.33" x2="1385.46" y2="120.36"/>
      <line class="cls-1" x1="1359.51" y1="127.96" x2="1364.65" y2="123.68"/>
      <line class="cls-1" x1="1347.45" y1="145.82" x2="1347.21" y2="139.13"/>
      <line class="cls-1" x1="1346.12" y1="178.94" x2="1345.88" y2="172.25"/>
      <line class="cls-1" x1="1353.13" y1="161.39" x2="1352.89" y2="154.7"/>
      <line class="cls-1" x1="1364.3" y1="146.77" x2="1358.96" y2="142.74"/>
      <line class="cls-1" x1="1364.3" y1="174.99" x2="1358.96" y2="170.96"/>
      <line class="cls-1" x1="1366.33" y1="194.33" x2="1360.04" y2="192.05"/>
      <line class="cls-1" x1="1369.92" y1="134.88" x2="1375.06" y2="130.6"/>
      <line class="cls-1" x1="1385.85" y1="133.36" x2="1392.43" y2="132.12"/>
      <line class="cls-1" x1="1379.45" y1="180.47" x2="1386.12" y2="181.03"/>
      <line class="cls-1" x1="1386.12" y1="193.94" x2="1391.46" y2="197.97"/>
      <line class="cls-1" x1="1405.06" y1="121.81" x2="1411.59" y2="123.24"/>
      <line class="cls-1" x1="1406.98" y1="139.69" x2="1412.7" y2="143.15"/>
      <line class="cls-1" x1="1414.4" y1="171.85" x2="1420.86" y2="170.08"/>
      <line class="cls-1" x1="1407.97" y1="158.04" x2="1414.4" y2="156.2"/>
      <line class="cls-1" x1="1407.18" y1="190.65" x2="1412.5" y2="186.6"/>
      <line class="cls-1" x1="1397.92" y1="185.56" x2="1402.86" y2="181.05"/>
      <line class="cls-1" x1="1425.43" y1="158.62" x2="1425.39" y2="151.93"/>
    </g>
    <g>
      <circle class="cls-4" cx="1899.82" cy="613.38" r="16.56"/>
      <circle class="cls-4" cx="1899.82" cy="613.38" r="52.51"/>
      <line class="cls-1" x1="1894.48" y1="572.21" x2="1899.82" y2="576.24"/>
      <line class="cls-1" x1="1873.88" y1="583.84" x2="1879.01" y2="579.55"/>
      <line class="cls-1" x1="1861.82" y1="601.69" x2="1861.58" y2="595.01"/>
      <line class="cls-1" x1="1860.48" y1="634.81" x2="1860.25" y2="628.12"/>
      <line class="cls-1" x1="1867.49" y1="617.26" x2="1867.25" y2="610.57"/>
      <line class="cls-1" x1="1878.67" y1="602.65" x2="1873.33" y2="598.62"/>
      <line class="cls-1" x1="1878.67" y1="630.87" x2="1873.33" y2="626.84"/>
      <line class="cls-1" x1="1880.69" y1="650.21" x2="1874.41" y2="647.93"/>
      <line class="cls-1" x1="1884.29" y1="590.76" x2="1889.42" y2="586.47"/>
      <line class="cls-1" x1="1900.22" y1="589.23" x2="1906.79" y2="588"/>
      <line class="cls-1" x1="1893.82" y1="636.35" x2="1900.49" y2="636.9"/>
      <line class="cls-1" x1="1900.49" y1="649.82" x2="1905.83" y2="653.85"/>
      <line class="cls-1" x1="1919.42" y1="577.68" x2="1925.96" y2="579.12"/>
      <line class="cls-1" x1="1912.29" y1="641.43" x2="1917.23" y2="636.92"/>
    </g>
    <g>
      <circle class="cls-4" cx="1037.84" cy="711.99" r="16.56"/>
      <circle class="cls-4" cx="1037.84" cy="711.99" r="52.51"/>
      <line class="cls-1" x1="1032.5" y1="670.81" x2="1037.84" y2="674.84"/>
      <line class="cls-1" x1="1011.89" y1="682.45" x2="1017.03" y2="678.16"/>
      <line class="cls-1" x1="999.83" y1="700.3" x2="999.59" y2="693.62"/>
      <line class="cls-1" x1="998.5" y1="733.42" x2="998.26" y2="726.73"/>
      <line class="cls-1" x1="1005.5" y1="715.87" x2="1005.27" y2="709.18"/>
      <line class="cls-1" x1="1016.68" y1="701.26" x2="1011.34" y2="697.23"/>
      <line class="cls-1" x1="1016.68" y1="729.47" x2="1011.34" y2="725.44"/>
      <line class="cls-1" x1="1018.71" y1="748.82" x2="1012.42" y2="746.54"/>
      <line class="cls-1" x1="1022.3" y1="689.37" x2="1027.44" y2="685.08"/>
      <line class="cls-1" x1="1038.23" y1="687.84" x2="1044.81" y2="686.61"/>
      <line class="cls-1" x1="1031.83" y1="734.95" x2="1038.5" y2="735.51"/>
      <line class="cls-1" x1="1038.5" y1="748.42" x2="1043.84" y2="752.45"/>
      <line class="cls-1" x1="1057.44" y1="676.29" x2="1063.97" y2="677.73"/>
      <line class="cls-1" x1="1059.36" y1="694.17" x2="1065.08" y2="697.63"/>
      <line class="cls-1" x1="1066.78" y1="726.33" x2="1073.23" y2="724.56"/>
      <line class="cls-1" x1="1060.35" y1="712.53" x2="1066.78" y2="710.68"/>
      <line class="cls-1" x1="1059.56" y1="745.14" x2="1064.88" y2="741.09"/>
      <line class="cls-1" x1="1050.3" y1="740.04" x2="1055.24" y2="735.53"/>
      <line class="cls-1" x1="1077.81" y1="713.1" x2="1077.77" y2="706.41"/>
    </g>
    <g>
      <circle class="cls-4" cx="1577.86" cy="966.99" r="16.56"/>
      <circle class="cls-4" cx="1577.86" cy="966.99" r="52.51"/>
      <line class="cls-1" x1="1572.52" y1="925.82" x2="1577.86" y2="929.85"/>
      <line class="cls-1" x1="1551.92" y1="937.45" x2="1557.05" y2="933.16"/>
      <line class="cls-1" x1="1539.86" y1="955.3" x2="1539.62" y2="948.62"/>
      <line class="cls-1" x1="1556.71" y1="956.26" x2="1551.36" y2="952.23"/>
      <line class="cls-1" x1="1562.33" y1="944.37" x2="1567.46" y2="940.08"/>
      <line class="cls-1" x1="1578.26" y1="942.84" x2="1584.83" y2="941.61"/>
      <line class="cls-1" x1="1597.46" y1="931.29" x2="1604" y2="932.73"/>
      <line class="cls-1" x1="1599.38" y1="949.17" x2="1605.11" y2="952.63"/>
    </g>
    <g>
      <circle class="cls-4" cx="23.32" cy="559.55" r="16.56"/>
      <circle class="cls-4" cx="23.32" cy="559.55" r="52.51"/>
      <line class="cls-1" x1="17.98" y1="518.37" x2="23.32" y2="522.4"/>
      <line class="cls-1" x1="-2.63" y1="530" x2="2.51" y2="525.71"/>
      <line class="cls-1" x1="2.16" y1="548.81" x2="-3.18" y2="544.78"/>
      <line class="cls-1" x1="2.16" y1="577.03" x2="-3.18" y2="573"/>
      <line class="cls-1" x1="4.19" y1="596.37" x2="-2.1" y2="594.09"/>
      <line class="cls-1" x1="7.79" y1="536.92" x2="12.92" y2="532.63"/>
      <line class="cls-1" x1="23.72" y1="535.4" x2="30.29" y2="534.16"/>
      <line class="cls-1" x1="17.32" y1="582.51" x2="23.98" y2="583.07"/>
      <line class="cls-1" x1="23.98" y1="595.98" x2="29.33" y2="600.01"/>
      <line class="cls-1" x1="42.92" y1="523.84" x2="49.46" y2="525.28"/>
      <line class="cls-1" x1="44.84" y1="541.72" x2="50.56" y2="545.19"/>
      <line class="cls-1" x1="52.27" y1="573.89" x2="58.72" y2="572.11"/>
      <line class="cls-1" x1="45.84" y1="560.08" x2="52.27" y2="558.23"/>
      <line class="cls-1" x1="45.04" y1="592.69" x2="50.36" y2="588.64"/>
      <line class="cls-1" x1="35.79" y1="587.6" x2="40.73" y2="583.08"/>
      <line class="cls-1" x1="63.29" y1="560.66" x2="63.25" y2="553.96"/>
    </g>
    <g>
      <path class="cls-3" d="M564.09,82.51l-25.83,22.41c-3.7,3.21-8.97,3.88-13.36,1.7h0c-4.62-2.3-7.28-7.26-6.64-12.38l4.51-36.09c.97-7.78,9.71-11.92,16.34-7.73l23.67,14.93c6.08,3.83,6.73,12.44,1.31,17.15Z"/>
      <path class="cls-3" d="M524.35,53.73s-19.51-8.45-24.21-2.29-1.97,31.67-1.97,31.67c0,0-.41,7.58,6.12,9.43s13.88,3.27,13.88,3.27"/>
      <path class="cls-3" d="M498.52,55.28s-25.13,2.12-24.24,14.77,23.8,14.83,23.8,14.83"/>
      <path class="cls-3" d="M566.64,79.48s17.6,11.93,14.92,19.2c-2.68,7.27-25.67,18.65-25.67,18.65,0,0-6.18,4.41-11.24-.11s-10.2-9.96-10.2-9.96"/>
      <path class="cls-3" d="M579.19,102.11s11.69,22.35.53,28.38c-11.16,6.03-25.28-12.14-25.28-12.14"/>
    </g>
    <g>
      <path class="cls-3" d="M173.73,361.76l5.66,33.73c.81,4.83-1.36,9.68-5.52,12.29h0c-4.37,2.74-9.99,2.43-14.02-.79l-28.44-22.66c-6.14-4.89-5.11-14.5,1.92-17.98l25.08-12.42c6.44-3.19,14.13.74,15.32,7.83Z"/>
      <path class="cls-3" d="M128.45,380.67s-17.39,12.24-14.58,19.46,26,18.2,26,18.2c0,0,6.26,4.3,11.24-.31s10.02-10.14,10.02-10.14"/>
      <path class="cls-3" d="M116.31,403.52s-11.29,22.55-.03,28.38c11.26,5.83,25.06-12.58,25.06-12.58"/>
      <path class="cls-3" d="M172.48,358.01s19.36-8.8,24.16-2.72c4.81,6.08,2.53,31.63,2.53,31.63,0,0,.54,7.57-5.95,9.54s-13.82,3.51-13.82,3.51"/>
      <path class="cls-3" d="M198.33,359.1s25.17,1.68,24.5,14.34c-.67,12.66-23.53,15.24-23.53,15.24"/>
    </g>
    <g>
      <path class="cls-3" d="M156.17,863.81l-31.09,14.25c-4.46,2.04-9.7,1.2-13.3-2.13h0c-3.78-3.5-4.94-9.01-2.89-13.74l14.48-33.36c3.12-7.2,12.67-8.71,17.86-2.83l18.52,20.98c4.76,5.39,2.96,13.84-3.57,16.83Z"/>
      <path class="cls-3" d="M126.13,825.02s-16.34-13.6-22.58-9.01c-6.24,4.59-10.8,29.84-10.8,29.84,0,0-2.53,7.16,3.22,10.77s12.4,7.04,12.4,7.04"/>
      <path class="cls-3" d="M100.91,819.24s-24.72-5.03-27.41,7.36,18.67,20.92,18.67,20.92"/>
      <path class="cls-3" d="M159.47,861.63s13.53,16.4,8.92,22.62-29.88,10.68-29.88,10.68c0,0-7.17,2.5-10.76-3.26-3.59-5.76-6.99-12.43-6.99-12.43"/>
      <path class="cls-3" d="M165.15,886.87s4.93,24.73-7.47,27.38c-12.4,2.65-20.85-18.75-20.85-18.75"/>
    </g>
    <g>
      <path class="cls-3" d="M642.61,696.03l-20.5,27.38c-2.94,3.92-7.95,5.7-12.7,4.49h0c-5-1.27-8.65-5.55-9.11-10.69l-3.24-36.22c-.7-7.81,6.96-13.7,14.33-11.02l26.3,9.57c6.75,2.46,9.22,10.73,4.91,16.49Z"/>
      <path class="cls-3" d="M597.67,676.33s-20.86-4.13-24.14,2.89,4.78,31.37,4.78,31.37c0,0,1.21,7.5,7.98,7.92,6.78.42,14.25.25,14.25.25"/>
      <path class="cls-3" d="M572.76,683.32s-24.11,7.4-20.56,19.57c3.55,12.17,26.4,9.44,26.4,9.44"/>
      <path class="cls-3" d="M644.47,692.54s19.73,7.93,18.65,15.6-21.14,23.67-21.14,23.67c0,0-5.1,5.62-11.01,2.28-5.91-3.34-12.08-7.57-12.08-7.57"/>
      <path class="cls-3" d="M661.52,711.99s16.16,19.36,6.54,27.62c-9.62,8.26-27.28-6.5-27.28-6.5"/>
    </g>
    <g>
      <path class="cls-3" d="M1662.61,735.04l-31.75,12.72c-4.55,1.82-9.75.73-13.18-2.77h0c-3.61-3.68-4.5-9.24-2.22-13.87l16.08-32.62c3.47-7.04,13.07-8.08,17.97-1.95l17.48,21.86c4.49,5.61,2.29,13.96-4.38,16.64Z"/>
      <path class="cls-3" d="M1634.48,694.84s-15.66-14.38-22.12-10.09c-6.46,4.28-12.24,29.28-12.24,29.28,0,0-2.87,7.03,2.69,10.92,5.57,3.89,12.04,7.63,12.04,7.63"/>
      <path class="cls-3" d="M1609.57,687.84s-24.44-6.23-27.74,6.02c-3.3,12.24,17.63,21.8,17.63,21.8"/>
      <path class="cls-3" d="M1666.01,733.02s12.72,17.04,7.81,23.03c-4.91,5.99-30.37,9.22-30.37,9.22,0,0-7.28,2.15-10.59-3.78-3.31-5.93-6.37-12.75-6.37-12.75"/>
      <path class="cls-3" d="M1670.45,758.51s3.72,24.95-8.79,26.99c-12.52,2.04-19.91-19.75-19.91-19.75"/>
    </g>
    <g>
      <path class="cls-3" d="M1783.37,62.58l18.66,28.66c2.67,4.11,2.62,9.42-.15,13.47h0c-2.91,4.26-8.19,6.22-13.17,4.88l-35.13-9.41c-7.58-2.03-10.47-11.25-5.42-17.25l18.03-21.41c4.63-5.5,13.25-4.97,17.17,1.06Z"/>
      <path class="cls-3" d="M1749.42,98s-11.05,18.17-5.59,23.66,31.1,6.3,31.1,6.3c0,0,7.45,1.45,10.18-4.77s5.14-13.3,5.14-13.3"/>
      <path class="cls-3" d="M1747.41,123.8s-1.34,25.19,11.31,26.03,17.95-21.55,17.95-21.55"/>
      <path class="cls-3" d="M1780.72,59.64s14.23-15.8,21.06-12.15c6.83,3.65,14.96,27.99,14.96,27.99,0,0,3.52,6.73-1.65,11.12-5.17,4.4-11.26,8.74-11.26,8.74"/>
      <path class="cls-3" d="M1804.86,50.31s23.74-8.52,28.19,3.36c4.44,11.88-15.48,23.38-15.48,23.38"/>
    </g>
  </g>
</svg>