<?xml version="1.0" encoding="UTF-8"?>
<svg id="_레이어_1" data-name="레이어 1" xmlns="http://www.w3.org/2000/svg" xmlns:xlink="http://www.w3.org/1999/xlink" viewBox="0 0 1920 960">
    <clipPath id="clippath">
      <rect class="cls-1" width="1920" height="960"/>
    </clipPath>

  <g class="cls-3">
    <circle class="cls-2" cx="658.93" cy="332.67" r="13.76" transform="translate(-52.22 134.87) rotate(-11.24)"/>
    <circle class="cls-2" cx="1179.79" cy="878.55" r="13.76" transform="translate(-148.66 246.91) rotate(-11.24)"/>
    <circle class="cls-2" cx="316.79" cy="898.08" r="11.1" transform="translate(-169.04 79.01) rotate(-11.24)"/>
    <circle class="cls-2" cx="179.55" cy="256.05" r="11.1" transform="translate(-46.48 39.93) rotate(-11.24)"/>
    <circle class="cls-2" cx="1802.28" cy="775.83" r="11.1" transform="translate(-116.68 366.31) rotate(-11.24)"/>
    <circle class="cls-2" cx="1577.86" cy="126.46" r="9.88" transform="translate(647.34 1407) rotate(-58.58)"/>
    <circle class="cls-2" cx="1410.32" cy="346.43" r="13.76"/>
    <circle class="cls-2" cx="516.71" cy="452.76" r="9.79" transform="translate(-139.03 657.65) rotate(-58.58)"/>
    <circle class="cls-2" cx="1899.82" cy="323.16" r="9.79" transform="translate(633.6 1775.9) rotate(-58.58)"/>
    <g>
      <g>
        <path class="cls-2" d="M794.19,200.11c-.04.24-.44.08-.58.31-.29.46,0,1.24,0,1.71.03,1.23.03,2.45.13,3.67l.67.42c-1.17-.19-2.91.42-3.96-.13-.82-.43-.91-1.64-.13-2.17l.86-.46c-1.08-.17-2.1-.46-1.96-1.79.04-.41.3-.86.65-1.08,1.06-.64,3.06-.26,4.3-.48ZM791.51,200.37c-1.52.22-1.58,2.74.1,2.96.45.06.8.13.86-.39.03-.24-.09-2.09-.14-2.29-.11-.37-.51-.33-.81-.29ZM792.46,203.45c-1.79-.59-2.01,2.47-.7,2.72,1.44.27.52-1.93.7-2.72Z"/>
        <path class="cls-2" d="M783.59,199.99c1.55-1.69-2.32-2.26-2.32-.75,0,1.24,2.06.35,2.46,1.36.28.7-.84,1.09-.84,1.17,2.1,1.05.85,3.33-1.38,2.53-.2-.07-.5-.37-.63-.37-.18.01-.67.58-1.21.25-.8-.48.83-1.68.58-.06.87-.18.27-.85.49-1.52.38-1.16,1.24-.71,1.96-.92.25-.07.42-.48.3-.66-.19-.28-2.74.07-2.72-1.31.03-1.64,2.43-1.66,3.56-1.2,1.22.49.92,1.39-.26,1.47ZM782.29,201.85c-.63.16-.89,2.43-.12,2.5.89.07,1.05-2.73.12-2.5Z"/>
        <path class="cls-2" d="M776.68,198.84s-.03.55,0,.69c.54-.57,2-.64,2.33.14.38.9-.52,2.73-.38,3.83.03.28.3.17.35.4l-1.61-.23c.13-.73.94-3.64.63-4.15-.4-.68-1.29.11-1.5.69-.11.31-.54,2.36-.52,2.59.03.29.37.39.46.63l-1.61-.23c-.16-.14.92-3.49.68-4.19-.07-.2-.35-.1-.33-.3.25.13,1.44.06,1.5.11Z"/>
        <path class="cls-2" d="M814.23,197.58c-.82.72-1.19.63-.77,1.98.29.95.79,1.46,1.81,1.36-1.23.89-3.06.2-2.97-1.41.05-.85,1.07-1.93,1.93-1.93Z"/>
        <path class="cls-2" d="M814.23,197.58c.16-.14.28-.09.21-.37-.03-.13-.62-1.42-.69-1.51-.29-.38-.6-.32-.97-.08l-.06-.23,2.53-.92c.02.18-.25.14-.36.28-.27.34.16,1.06.3,1.45.3.78,1.1,2.84,1.5,3.45.27.41.41.37.85.24-.01.17-.18.18-.29.23-.42.22-1.6.76-2.02.8.29-.21.51-.32.44-.72-.02-.14-.94-2.31-1.03-2.44-.14-.2-.23-.18-.45-.18Z"/>
        <path class="cls-2" d="M786.13,202.76c1.28-.33,2.3-2.19.34-2.13.6-.69,1.98-.59,2.08.46.16,1.75-2.17,1.2-2.4,1.98-.19.64-.06,1.67.78,1.65.03.18-.16.12-.28.11-2.06-.14-1.6-1.77-1.56-3.4,0-.31.23-.75.02-1.02-.12-.15-.39.04-.36-.18,2.13-.59,1.37,1.25,1.38,2.53Z"/>
        <path class="cls-2" d="M770.46,200.11l1.26.35c.03.24-.39.05-.46.11-.12.12-.16,1.29.11,1.56.59.6,1.35-.56,1.49-1.05.09-.33-.65-.1-.68-.39.72.15.84.14.92-.63.16-1.53-.87-2.37-2.13-1.33-.06-.53.86-.93,1.38-.92,3.22.06,1.93,5.71-1.06,4.52-.99-.4-1.14-1.26-.84-2.21Z"/>
        <path class="cls-2" d="M760.94,198.34c-.59-.58-.4-1.35-.15-2.03l1.15.46c.03.22-.23.03-.36.19-.31.36-.45,1.67.3,1.67.54,0,.94-.72,1.21-1.11l-.92-.52c.28-.11.76.37.92.29.58-.28.89-2.57-.64-2.61-.4,0-.62.3-.97.18.85-.92,2.37-.71,2.94.4,1.04,2.01-1.67,4.88-3.48,3.08Z"/>
        <path class="cls-2" d="M767.8,200.91c.06-.8,1.26-2.99,1.16-3.62-.03-.23-.28-.4-.51-.38-.31.03-.46.51-.77.38.48-.92,2.04-.78,2.18.24.11.75-1.23,3.61-1.03,3.84.04.05.57,0,.57.24-1.08-.49-.81.71-1.04.92-.1.09-.91-.21-1.15-.11l.46-1.38c-.37.05-1.47-.58-1.67-.56-.21.02-.27.94-.51,1.09-.1.06-.79-.31-1.04-.18l.46-1.37c-.1-.14-1.01-.08-.92-.47.36.07.85.58,1.14.16.5-.73.79-2.39,1.25-3.23-.02-.45-.36-.63-.78-.44-.16.07-.21.35-.46.29.48-.98,2.14-.63,2.18.41.03.73-1.35,3.21-1.25,3.54.07.23,1.62.72,1.71.65Z"/>
        <path class="cls-2" d="M800.06,200.92c-.31-.2-.3-.62-.52-.91-.74-1-2.18-.28-1.44.74.54.74,3.16,1.17,2.06,2.75-.64.92-2.3.32-2.4.42-.06.06.11.38-.12.34l-.23-1.5.52.69c.39.73,1.69.58,1.56-.28s-2.4-1.01-2.54-2.19.75-1.57,1.79-1.57c.25,0,.61.18.79.12.2-.07.11-.36.3-.34l.23,1.73Z"/>
        <path class="cls-2" d="M806.4,197.92c-.12.14-.5-.03-.44.6.04.38.7,2.77.87,3.05.21.35.44.24.6.49-.53.01-1.03.23-1.5.46.1-.33-.33-.73-.34-.77-.05-.23.04-.5-.03-.76-.11-.41-.59-2.39-.86-2.48-.23-.08-.54.06-.73-.08l2.36-.75c.1-.02.07.21.06.23Z"/>
        <path class="cls-2" d="M802.59,198.73c-.18.29-.45.15-.47.63-.01.35.48,2.56.61,2.97.15.47.31.52.77.61l-1.61.52c-.17-.15-.54-3.56-.91-4.08-.13-.18-.47.03-.59-.13l2.19-.52Z"/>
        <path class="cls-2" d="M809.16,199.53c.09-.61.97-.85.64-1.85s-1.25,0-1.33,0c.08-1.56,3.03-1.4,2.2.53-.09.21-1.33,1.27-1.51,1.32Z"/>
        <path class="cls-2" d="M808.47,197.69c-.01.28.33,1.5.46,1.77.06.12.11.11.23.08-.07.43.16,1.37.58,1.55.21.1.56-.04.57.17-.59.14-1.11.42-1.65-.01-.64-.5-1.14-3.28-1.35-3.43-.15-.11-.49.14-.68.1.17-.37.73-.66,1.12-.66s.58.43.73.43Z"/>
        <path class="cls-2" d="M802.56,204.28c1.36-.3,1.2,1.35-.02,1.12-.56-.11-.62-.98.02-1.12Z"/>
        <path class="cls-2" d="M804.78,202.64l.69-.46c-.01.62-1.23.94-1.51.5-.73-1.16,1.47-1.76.82-.04Z"/>
        <path class="cls-2" d="M787.05,204.72l.46-.29c-1.25-.96.67-1.71.78-.68.06.59-.71,1.02-1.24.96Z"/>
        <path class="cls-2" d="M810.89,200.8s.04-.13-.09-.22c-.1-.06-.25-.05-.38-.17-.78-.77.85-1.56.98-.43.04.3-.39.9-.52.82Z"/>
      </g>
      <path class="cls-2" d="M820.91,193.08c-.05-.33-.8-1.25-.64-1.5.07-.11,1.76-1.18,2.06-1.4,17.48-12.84,26.51-33.33,23.56-55.08-2.21-16.32-11.76-31.38-25.54-40.29-.14-.24.56-1.23.74-1.48,13.62,8.73,23.23,23.29,26.05,39.26,1.38,7.83,1.23,15.66-.46,23.43-3.3,15.17-12.69,28.76-25.76,37.07Z"/>
      <path class="cls-2" d="M756.29,93.33l.64,1.39c-7.06,4.71-13.17,10.85-17.62,18.09-8.67,14.09-10.89,31.33-6.11,47.22,3.87,12.88,12.37,24.24,23.62,31.56.14.21-.63,1.17-.7,1.5-11.69-7.52-20.51-19.3-24.5-32.63-6.89-22.98.59-47.9,18.98-63.1.56-.46,5.41-4.24,5.7-4.03Z"/>
      <path class="cls-2" d="M842.76,143.24c0,29.93-24.26,54.2-54.19,54.2s-54.19-24.27-54.19-54.2,24.26-54.2,54.19-54.2,54.19,24.27,54.19,54.2ZM842.56,143.24c0-29.83-24.18-54.01-54-54.01s-54,24.18-54,54.01,24.18,54.01,54,54.01,54-24.18,54-54.01Z"/>
      <path class="cls-2" d="M763.2,112.79c.33-.04.65.11.97.12,6.52.23,13.07.03,19.58,0,7.92-.05,16.52-.02,22.06,6.52,4.62,5.46,4.14,14.27.1,19.9-5.71,7.95-16.4,8.26-25.32,8.03.17,4.93-.23,10.01,0,14.92.06,1.43.24,3.73,1.11,4.88,1.33,1.77,4.38,1.68,6.38,1.85v-20.73c5.69-.18,11.95.88,16.92-2.49.68-.46,1.25-1.06,1.91-1.54,6.44,1.17,11.37,5.75,11.8,12.5.32,4.95-.71,9.01-5.15,11.67-5.28,3.16-12.35,2.4-18.3,2.33-9.53-.12-19.13-.43-28.68-.12-1.14.04-2.27-.04-3.4.12v-1.61c3.17-.28,5.54-.17,6.09-3.87.3-15.22.04-30.49.13-45.72-.18-1.36-.22-3-1.33-3.97-1.18-1.02-3.41-1.03-4.89-1.15v-1.61ZM780.6,145.74c5.61.11,11.48.38,14.65-5.11,2.96-5.14,3.01-18.22-.83-22.94-2.11-2.6-5.8-3.49-9.04-3.29-4.52.28-4.5,2.61-4.78,6.51v24.83ZM796.38,150.46v15.5c.21,2.23.8,3.33,3.16,3.51,6.09.48,9.72-2.25,10.43-8.36.37-3.21-.1-8.71-3.49-10.21-2.93-1.3-6.99-.74-10.1-.44Z"/>
      <g>
        <path class="cls-2" d="M787.62,83.53c1.2-.08,2.3.75,1.85,2.02-.59,1.69-3.5.83-4.84,1.2.04-.26.42-.19.52-.34.31-.46-.13-4.5-.09-5.34-.07-.4-.56-.18-.67-.43,1.09.15,4.23-.64,4.58.89.28,1.21-.62,1.38-1.36,1.99ZM786.35,83.42c2.13.66,1.85-3.3.28-2.66-.82.33-.15,1.98-.28,2.66ZM786.35,83.54v2.59c0,.57,1.82.75,1.96-.8.13-1.46-.59-1.88-1.96-1.79Z"/>
        <path class="cls-2" d="M798.56,82.96c-1.05.26.01,1.28-.8,2.02-.62.56-1.41.03-1.91.51-.73.71,1.17.69,1.61.82.55.16,1.02.43.99,1.09-.09,2.03-4.21,1.45-4.37.44-.07-.44.46-.78.84-.84.47-.07-.12.43-.15.54-.43,1.48,3.38,1.48,2.66-.05-.36-.76-2.57-.11-2.45-1.34.05-.53.59-.62.92-.93-.72-.26-1.12-.66-1.03-1.48.14-1.3,1.74-1.33,2.68-.86.13.06.3.31.36.31.15,0,.64-.66,1.2-.26.79.55-.77,1.62-.57.05ZM796.46,82.74c-.53.15-.7,1.82-.42,2.22.89,1.26,1.73-2.6.42-2.22Z"/>
        <path class="cls-2" d="M764.7,88.83c.78-.66.87-.96.55-1.99s-.8-1.43-1.82-1.24c.19-.15.25-.19.48-.27,2.8-.94,3.54,2.87.78,3.49Z"/>
        <path class="cls-2" d="M763.43,85.61c-.1.08-.29.19-.32.31-.21.64.9,2.3,1.02,3.03.19-.05.38-.07.57-.11-.17.15-.3.18-.47.3.4.72.53,2.49,1.68,1.78l.06.23-2.53.92c.16-.29.59-.28.44-.72-.59-1.33-1.04-2.8-1.65-4.12-.3-.65-.25-.87-1.09-.7l1.96-.87c.11-.06.24-.03.34-.05Z"/>
        <path class="cls-2" d="M794.07,86.65c.02.17-.3.21-.41.22-.66.06-.95-.01-1.14-.68-.64,1-2.5.71-2.34-.6s2.29-1,2.49-1.67c.06-.22.06-1.11-.03-1.3-.15-.3-.65-.19-.75-.46,2.03,0,1.89.95,1.85,2.6-.02.57-.51,1.93.34,1.9ZM792.69,84.23c-.35.21-1.01.42-1.25.76-.38.54-.27,1.55.54,1.35.93-.23.48-1.4.71-2.11Z"/>
        <path class="cls-2" d="M769.54,87.11c.15-.46-.19-1.59-.66-1.71-.25-.07-.64.24-.72-.01.53-.18,1.38-.42,1.89-.1.55.34,1.06,2.8,1.32,3.49l.47.12c-.45.54-1.13.57-1.61.06-.31,1.21-2.1,1.49-2.35.09-.14-.76,1.03-1.64,1.66-1.94-.17.52-.65.6-.7,1.21-.05.69.41,1.29,1.09.85s-.17-1.54-.16-2.18c-.03-.03-.16.08-.23.12Z"/>
        <path class="cls-2" d="M817.91,91.14l-1.38-.58c.02-.29.49.06.57,0,.03-.02.21-.65.22-.76.29-2.2-1.97-.16-1.71.18.03.04.28-.09.23.12-.47-.15-.81,1.11-.81,1.44.02,1.04,1.29,1.5,2.08.86-.17.71-1.21.78-1.81.6-2.68-.8-.73-5.56,1.95-4.26,1.05.51.98,1.43.66,2.39Z"/>
        <path class="cls-2" d="M806.17,86.42c-.11,0-.22-.03-.33.02-.79,1.56.32,3.38,1.94,2.06-.32.96-1.55,1.12-2.34.68-2.06-1.14-.5-5.32,2.14-4.22.91.38.94,1.31.78,2.16-.68-.24-1.62-.31-2.19-.69.48,0,.8.26,1.26.22.43-.99-.03-2.48-1.09-1.26-.29.33-.59.75-.17,1.04Z"/>
        <path class="cls-2" d="M811.46,84.92l-.46,1.38,1.77.59c.15-.02.37-1.01.42-1.04.12-.09.82.23,1.03.23-.22,1.01-.95,1.31.46,1.61-.17.37-.88-.35-1.03-.23l-1.36,3.43c-.03.81.49.39,1.01.43-.57.79-1.96.17-1.96-.69,0-.64,1.52-3.49,1.39-3.63l-1.84-.58c-.02.74-1.41,3.29-1.1,3.8.23.38.85.07,1.04-.23.16.38-.68.72-1.03.69-.93-.09-1.09-.83-.94-1.62.1-.54,1.11-2.68,1.07-2.94-.04-.31-.76-.12-.66-.51,1.23.73.73-.47,1.15-.76.18-.13.77.17,1.04.07Z"/>
        <path class="cls-2" d="M781.4,84l-.92-1.09c-.53-.17-1.19-.09-1.16.58.05.93,2.13,1.09,2.46,2.15.35,1.12-.7,1.76-1.71,1.72-.29-.01-.77-.23-.81-.23-.15.01-.08.46-.4.34l-.11-1.61.57,1.06c.51.55,1.54.44,1.51-.43-.04-1.11-2.36-1.14-2.42-2.55-.07-1.75,2.52-.97,2.64-1.09.06-.06-.11-.38.12-.34l.23,1.5Z"/>
        <path class="cls-2" d="M772.88,84.11s.08.57.12.69l.23-.23c-.12.58.37,3.31.81,3.51.24.11.5,0,.69.11l-2.42.63c0-.2.3-.14.41-.34.09-.18.05-.31.03-.49-.05-.44-.58-2.58-.76-2.94-.06-.11-.14-.27-.25-.32-.18-.09-.47.03-.46-.17.26.02,1.55-.52,1.61-.46Z"/>
        <path class="cls-2" d="M801.44,83.42c-.12,1.04-.89,2.88-.82,3.86.01.18.06.37.24.46.27.13.7-.07.81.17-3.39.67-1.53-2.21-1.49-3.86.01-.59-.11-.49-.47-.86.58.08,1.12.32,1.73.23Z"/>
        <path class="cls-2" d="M803.98,84c-.07.75-1.01,3.64-.75,4.15.1.2.4.14.41.34l-1.61-.23c-.05-.49.41-.76-.23-.63.54-.45,1.07-2.87.9-3.43-.06-.18-.27-.25-.32-.43l1.61.23Z"/>
        <path class="cls-2" d="M777.74,87.31c.15.15.53.03.55.25l-2.19.35c-.02-.21.38-.15.44-.25.13-.2-.4-3.15-.55-3.51s-.3-.42-.7-.4c-.21-.15,1.48-.4,1.61-.57.19.6.56,3.85.83,4.12Z"/>
        <path class="cls-2" d="M775.84,81.26c1.08-.24,1.15,1.05.27,1.19s-1.08-1.01-.27-1.19Z"/>
        <path class="cls-2" d="M774.03,84c-.18-.08-.53.27-.57.23-.17-.17.13-.25.21-.3,1.35-.75,1.8,1.18.65,1.12-.59-.03-.6-.66-.29-1.05Z"/>
        <path class="cls-2" d="M791.77,82.27l-.46.29c1.33.88-.76,1.75-.75.57,0-.57.71-.9,1.21-.86Z"/>
        <path class="cls-2" d="M768.04,85.61l-.23.34c1.01.02.85,1.42-.15,1.13-.63-.18-.26-1.45.38-1.48Z"/>
      </g>
    </g>
    <g>
      <g>
        <path class="cls-2" d="M814.43,889.54c-.04.24-.44.08-.58.31-.29.46,0,1.24,0,1.71.03,1.23.03,2.45.13,3.67l.67.42c-1.17-.19-2.91.42-3.96-.13-.82-.43-.91-1.64-.13-2.17l.86-.46c-1.08-.17-2.1-.46-1.96-1.79.04-.41.3-.86.65-1.08,1.06-.64,3.06-.26,4.3-.48ZM811.75,889.79c-1.52.22-1.58,2.74.1,2.96.45.06.8.13.86-.39.03-.24-.09-2.09-.14-2.29-.11-.37-.51-.33-.81-.29ZM812.7,892.88c-1.79-.59-2.01,2.47-.7,2.72,1.44.27.52-1.93.7-2.72Z"/>
        <path class="cls-2" d="M803.83,889.42c1.55-1.69-2.32-2.26-2.32-.75,0,1.24,2.06.35,2.46,1.36.28.7-.84,1.09-.84,1.17,2.1,1.05.85,3.33-1.38,2.53-.2-.07-.5-.37-.63-.37-.18.01-.67.58-1.21.25-.8-.48.83-1.68.58-.06.87-.18.27-.85.49-1.52.38-1.16,1.24-.71,1.96-.92.25-.07.42-.48.3-.66-.19-.28-2.74.07-2.72-1.31.03-1.64,2.43-1.66,3.56-1.2,1.22.49.92,1.39-.26,1.47ZM802.53,891.28c-.63.16-.89,2.43-.12,2.5.89.07,1.05-2.73.12-2.5Z"/>
        <path class="cls-2" d="M796.92,888.27s-.03.55,0,.69c.54-.57,2-.64,2.33.14.38.9-.52,2.73-.38,3.83.03.28.3.17.35.4l-1.61-.23c.13-.73.94-3.64.63-4.15-.4-.68-1.29.11-1.5.69-.11.31-.54,2.36-.52,2.59.03.29.37.39.46.63l-1.61-.23c-.16-.14.92-3.49.68-4.19-.07-.2-.35-.1-.33-.3.25.13,1.44.06,1.5.11Z"/>
        <path class="cls-2" d="M834.47,887c-.82.72-1.19.63-.77,1.98.29.95.79,1.46,1.81,1.36-1.23.89-3.06.2-2.97-1.41.05-.85,1.07-1.93,1.93-1.93Z"/>
        <path class="cls-2" d="M834.47,887c.16-.14.28-.09.21-.37-.03-.13-.62-1.42-.69-1.51-.29-.38-.6-.32-.97-.08l-.06-.23,2.53-.92c.02.18-.25.14-.36.28-.27.34.16,1.06.3,1.45.3.78,1.1,2.84,1.5,3.45.27.41.41.37.85.24-.01.17-.18.18-.29.23-.42.22-1.6.76-2.02.8.29-.21.51-.32.44-.72-.02-.14-.94-2.31-1.03-2.44-.14-.2-.23-.18-.45-.18Z"/>
        <path class="cls-2" d="M806.37,892.19c1.28-.33,2.3-2.19.34-2.13.6-.69,1.98-.59,2.08.46.16,1.75-2.17,1.2-2.4,1.98-.19.64-.06,1.67.78,1.65.03.18-.16.12-.28.11-2.06-.14-1.6-1.77-1.56-3.4,0-.31.23-.75.02-1.02-.12-.15-.39.04-.36-.18,2.13-.59,1.37,1.25,1.38,2.53Z"/>
        <path class="cls-2" d="M790.7,889.54l1.26.35c.03.24-.39.05-.46.11-.12.12-.16,1.29.11,1.56.59.6,1.35-.56,1.49-1.05.09-.33-.65-.1-.68-.39.72.15.84.14.92-.63.16-1.53-.87-2.37-2.13-1.33-.06-.53.86-.93,1.38-.92,3.22.06,1.93,5.71-1.06,4.52-.99-.4-1.14-1.26-.84-2.21Z"/>
        <path class="cls-2" d="M781.18,887.77c-.59-.58-.4-1.35-.15-2.03l1.15.46c.03.22-.23.03-.36.19-.31.36-.45,1.67.3,1.67.54,0,.94-.72,1.21-1.11l-.92-.52c.28-.11.76.37.92.29.58-.28.89-2.57-.64-2.61-.4,0-.62.3-.97.18.85-.92,2.37-.71,2.94.4,1.04,2.01-1.67,4.88-3.48,3.08Z"/>
        <path class="cls-2" d="M788.05,890.34c.06-.8,1.26-2.99,1.16-3.62-.03-.23-.28-.4-.51-.38-.31.03-.46.51-.77.38.48-.92,2.04-.78,2.18.24.11.75-1.23,3.61-1.03,3.84.04.05.57,0,.57.24-1.08-.49-.81.71-1.04.92-.1.09-.91-.21-1.15-.11l.46-1.38c-.37.05-1.47-.58-1.67-.56-.21.02-.27.94-.51,1.09-.1.06-.79-.31-1.04-.18l.46-1.37c-.1-.14-1.01-.08-.92-.47.36.07.85.58,1.14.16.5-.73.79-2.39,1.25-3.23-.02-.45-.36-.63-.78-.44-.16.07-.21.35-.46.29.48-.98,2.14-.63,2.18.41.03.73-1.35,3.21-1.25,3.54.07.23,1.62.72,1.71.65Z"/>
        <path class="cls-2" d="M820.3,890.34c-.31-.2-.3-.62-.52-.91-.74-1-2.18-.28-1.44.74.54.74,3.16,1.17,2.06,2.75-.64.92-2.3.32-2.4.42-.06.06.11.38-.12.34l-.23-1.5.52.69c.39.73,1.69.58,1.56-.28s-2.4-1.01-2.54-2.19.75-1.57,1.79-1.57c.25,0,.61.18.79.12.2-.07.11-.36.3-.34l.23,1.73Z"/>
        <path class="cls-2" d="M826.64,887.35c-.12.14-.5-.03-.44.6.04.38.7,2.77.87,3.05.21.35.44.24.6.49-.53.01-1.03.23-1.5.46.1-.33-.33-.73-.34-.77-.05-.23.04-.5-.03-.76-.11-.41-.59-2.39-.86-2.48-.23-.08-.54.06-.73-.08l2.36-.75c.1-.02.07.21.06.23Z"/>
        <path class="cls-2" d="M822.84,888.16c-.18.29-.45.15-.47.63-.01.35.48,2.56.61,2.97.15.47.31.52.77.61l-1.61.52c-.17-.15-.54-3.56-.91-4.08-.13-.18-.47.03-.59-.13l2.19-.52Z"/>
        <path class="cls-2" d="M829.4,888.96c.09-.61.97-.85.64-1.85s-1.25,0-1.33,0c.08-1.56,3.03-1.4,2.2.53-.09.21-1.33,1.27-1.51,1.32Z"/>
        <path class="cls-2" d="M828.71,887.12c-.01.28.33,1.5.46,1.77.06.12.11.11.23.08-.07.43.16,1.37.58,1.55.21.1.56-.04.57.17-.59.14-1.11.42-1.65-.01-.64-.5-1.14-3.28-1.35-3.43-.15-.11-.49.14-.68.1.17-.37.73-.66,1.12-.66s.58.43.73.43Z"/>
        <path class="cls-2" d="M822.8,893.71c1.36-.3,1.2,1.35-.02,1.12-.56-.11-.62-.98.02-1.12Z"/>
        <path class="cls-2" d="M825.03,892.07l.69-.46c-.01.62-1.23.94-1.51.5-.73-1.16,1.47-1.76.82-.04Z"/>
        <path class="cls-2" d="M807.29,894.14l.46-.29c-1.25-.96.67-1.71.78-.68.06.59-.71,1.02-1.24.96Z"/>
        <path class="cls-2" d="M831.13,890.23s.04-.13-.09-.22c-.1-.06-.25-.05-.38-.17-.78-.77.85-1.56.98-.43.04.3-.39.9-.52.82Z"/>
      </g>
      <path class="cls-2" d="M841.15,882.51c-.05-.33-.8-1.25-.64-1.5.07-.11,1.76-1.18,2.06-1.4,17.48-12.84,26.51-33.33,23.56-55.08-2.21-16.32-11.76-31.38-25.54-40.29-.14-.24.56-1.23.74-1.48,13.62,8.73,23.23,23.29,26.05,39.26,1.38,7.83,1.23,15.66-.46,23.43-3.3,15.17-12.69,28.76-25.76,37.07Z"/>
      <path class="cls-2" d="M776.53,782.75l.64,1.39c-7.06,4.71-13.17,10.85-17.62,18.09-8.67,14.09-10.89,31.33-6.11,47.22,3.87,12.88,12.37,24.24,23.62,31.56.14.21-.63,1.17-.7,1.5-11.69-7.52-20.51-19.3-24.5-32.63-6.89-22.98.59-47.9,18.98-63.1.56-.46,5.41-4.24,5.7-4.03Z"/>
      <path class="cls-2" d="M863,832.67c0,29.93-24.26,54.2-54.19,54.2s-54.19-24.27-54.19-54.2,24.26-54.2,54.19-54.2,54.19,24.27,54.19,54.2ZM862.81,832.67c0-29.83-24.18-54.01-54-54.01s-54,24.18-54,54.01,24.18,54.01,54,54.01,54-24.18,54-54.01Z"/>
      <path class="cls-2" d="M783.44,802.22c.33-.04.65.11.97.12,6.52.23,13.07.03,19.58,0,7.92-.05,16.52-.02,22.06,6.52,4.62,5.46,4.14,14.27.1,19.9-5.71,7.95-16.4,8.26-25.32,8.03.17,4.93-.23,10.01,0,14.92.06,1.43.24,3.73,1.11,4.88,1.33,1.77,4.38,1.68,6.38,1.85v-20.73c5.69-.18,11.95.88,16.92-2.49.68-.46,1.25-1.06,1.91-1.54,6.44,1.17,11.37,5.75,11.8,12.5.32,4.95-.71,9.01-5.15,11.67-5.28,3.16-12.35,2.4-18.3,2.33-9.53-.12-19.13-.43-28.68-.12-1.14.04-2.27-.04-3.4.12v-1.61c3.17-.28,5.54-.17,6.09-3.87.3-15.22.04-30.49.13-45.72-.18-1.36-.22-3-1.33-3.97-1.18-1.02-3.41-1.03-4.89-1.15v-1.61ZM800.84,835.17c5.61.11,11.48.38,14.65-5.11,2.96-5.14,3.01-18.22-.83-22.94-2.11-2.6-5.8-3.49-9.04-3.29-4.52.28-4.5,2.61-4.78,6.51v24.83ZM816.62,839.89v15.5c.21,2.23.8,3.33,3.16,3.51,6.09.48,9.72-2.25,10.43-8.36.37-3.21-.1-8.71-3.49-10.21-2.93-1.3-6.99-.74-10.1-.44Z"/>
      <g>
        <path class="cls-2" d="M807.86,772.96c1.2-.08,2.3.75,1.85,2.02-.59,1.69-3.5.83-4.84,1.2.04-.26.42-.19.52-.34.31-.46-.13-4.5-.09-5.34-.07-.4-.56-.18-.67-.43,1.09.15,4.23-.64,4.58.89.28,1.21-.62,1.38-1.36,1.99ZM806.6,772.85c2.13.66,1.85-3.3.28-2.66-.82.33-.15,1.98-.28,2.66ZM806.6,772.96v2.59c0,.57,1.82.75,1.96-.8.13-1.46-.59-1.88-1.96-1.79Z"/>
        <path class="cls-2" d="M818.8,772.39c-1.05.26.01,1.28-.8,2.02-.62.56-1.41.03-1.91.51-.73.71,1.17.69,1.61.82.55.16,1.02.43.99,1.09-.09,2.03-4.21,1.45-4.37.44-.07-.44.46-.78.84-.84.47-.07-.12.43-.15.54-.43,1.48,3.38,1.48,2.66-.05-.36-.76-2.57-.11-2.45-1.34.05-.53.59-.62.92-.93-.72-.26-1.12-.66-1.03-1.48.14-1.3,1.74-1.33,2.68-.86.13.06.3.31.36.31.15,0,.64-.66,1.2-.26.79.55-.77,1.62-.57.05ZM816.7,772.17c-.53.15-.7,1.82-.42,2.22.89,1.26,1.73-2.6.42-2.22Z"/>
        <path class="cls-2" d="M784.94,778.26c.78-.66.87-.96.55-1.99s-.8-1.43-1.82-1.24c.19-.15.25-.19.48-.27,2.8-.94,3.54,2.87.78,3.49Z"/>
        <path class="cls-2" d="M783.67,775.04c-.1.08-.29.19-.32.31-.21.64.9,2.3,1.02,3.03.19-.05.38-.07.57-.11-.17.15-.3.18-.47.3.4.72.53,2.49,1.68,1.78l.06.23-2.53.92c.16-.29.59-.28.44-.72-.59-1.33-1.04-2.8-1.65-4.12-.3-.65-.25-.87-1.09-.7l1.96-.87c.11-.06.24-.03.34-.05Z"/>
        <path class="cls-2" d="M814.31,776.07c.02.17-.3.21-.41.22-.66.06-.95-.01-1.14-.68-.64,1-2.5.71-2.34-.6s2.29-1,2.49-1.67c.06-.22.06-1.11-.03-1.3-.15-.3-.65-.19-.75-.46,2.03,0,1.89.95,1.85,2.6-.02.57-.51,1.93.34,1.9ZM812.93,773.65c-.35.21-1.01.42-1.25.76-.38.54-.27,1.55.54,1.35.93-.23.48-1.4.71-2.11Z"/>
        <path class="cls-2" d="M789.78,776.53c.15-.46-.19-1.59-.66-1.71-.25-.07-.64.24-.72-.01.53-.18,1.38-.42,1.89-.1.55.34,1.06,2.8,1.32,3.49l.47.12c-.45.54-1.13.57-1.61.06-.31,1.21-2.1,1.49-2.35.09-.14-.76,1.03-1.64,1.66-1.94-.17.52-.65.6-.7,1.21-.05.69.41,1.29,1.09.85s-.17-1.54-.16-2.18c-.03-.03-.16.08-.23.12Z"/>
        <path class="cls-2" d="M838.15,780.56l-1.38-.58c.02-.29.49.06.57,0,.03-.02.21-.65.22-.76.29-2.2-1.97-.16-1.71.18.03.04.28-.09.23.12-.47-.15-.81,1.11-.81,1.44.02,1.04,1.29,1.5,2.08.86-.17.71-1.21.78-1.81.6-2.68-.8-.73-5.56,1.95-4.26,1.05.51.98,1.43.66,2.39Z"/>
        <path class="cls-2" d="M826.41,775.84c-.11,0-.22-.03-.33.02-.79,1.56.32,3.38,1.94,2.06-.32.96-1.55,1.12-2.34.68-2.06-1.14-.5-5.32,2.14-4.22.91.38.94,1.31.78,2.16-.68-.24-1.62-.31-2.19-.69.48,0,.8.26,1.26.22.43-.99-.03-2.48-1.09-1.26-.29.33-.59.75-.17,1.04Z"/>
        <path class="cls-2" d="M831.71,774.34l-.46,1.38,1.77.59c.15-.02.37-1.01.42-1.04.12-.09.82.23,1.03.23-.22,1.01-.95,1.31.46,1.61-.17.37-.88-.35-1.03-.23l-1.36,3.43c-.03.81.49.39,1.01.43-.57.79-1.96.17-1.96-.69,0-.64,1.52-3.49,1.39-3.63l-1.84-.58c-.02.74-1.41,3.29-1.1,3.8.23.38.85.07,1.04-.23.16.38-.68.72-1.03.69-.93-.09-1.09-.83-.94-1.62.1-.54,1.11-2.68,1.07-2.94-.04-.31-.76-.12-.66-.51,1.23.73.73-.47,1.15-.76.18-.13.77.17,1.04.07Z"/>
        <path class="cls-2" d="M801.64,773.42l-.92-1.09c-.53-.17-1.19-.09-1.16.58.05.93,2.13,1.09,2.46,2.15.35,1.12-.7,1.76-1.71,1.72-.29-.01-.77-.23-.81-.23-.15.01-.08.46-.4.34l-.11-1.61.57,1.06c.51.55,1.54.44,1.51-.43-.04-1.11-2.36-1.14-2.42-2.55-.07-1.75,2.52-.97,2.64-1.09.06-.06-.11-.38.12-.34l.23,1.5Z"/>
        <path class="cls-2" d="M793.12,773.54s.08.57.12.69l.23-.23c-.12.58.37,3.31.81,3.51.24.11.5,0,.69.11l-2.42.63c0-.2.3-.14.41-.34.09-.18.05-.31.03-.49-.05-.44-.58-2.58-.76-2.94-.06-.11-.14-.27-.25-.32-.18-.09-.47.03-.46-.17.26.02,1.55-.52,1.61-.46Z"/>
        <path class="cls-2" d="M821.68,772.85c-.12,1.04-.89,2.88-.82,3.86.01.18.06.37.24.46.27.13.7-.07.81.17-3.39.67-1.53-2.21-1.49-3.86.01-.59-.11-.49-.47-.86.58.08,1.12.32,1.73.23Z"/>
        <path class="cls-2" d="M824.22,773.42c-.07.75-1.01,3.64-.75,4.15.1.2.4.14.41.34l-1.61-.23c-.05-.49.41-.76-.23-.63.54-.45,1.07-2.87.9-3.43-.06-.18-.27-.25-.32-.43l1.61.23Z"/>
        <path class="cls-2" d="M797.98,776.74c.15.15.53.03.55.25l-2.19.35c-.02-.21.38-.15.44-.25.13-.2-.4-3.15-.55-3.51s-.3-.42-.7-.4c-.21-.15,1.48-.4,1.61-.57.19.6.56,3.85.83,4.12Z"/>
        <path class="cls-2" d="M796.08,770.68c1.08-.24,1.15,1.05.27,1.19s-1.08-1.01-.27-1.19Z"/>
        <path class="cls-2" d="M794.27,773.42c-.18-.08-.53.27-.57.23-.17-.17.13-.25.21-.3,1.35-.75,1.8,1.18.65,1.12-.59-.03-.6-.66-.29-1.05Z"/>
        <path class="cls-2" d="M812.01,771.7l-.46.29c1.33.88-.76,1.75-.75.57,0-.57.71-.9,1.21-.86Z"/>
        <path class="cls-2" d="M788.28,775.04l-.23.34c1.01.02.85,1.42-.15,1.13-.63-.18-.26-1.45.38-1.48Z"/>
      </g>
    </g>
    <g>
      <g>
        <path class="cls-2" d="M1390.07,836.06c-.04.24-.44.08-.58.31-.29.46,0,1.24,0,1.71.03,1.23.03,2.45.13,3.67l.67.42c-1.17-.19-2.91.42-3.96-.13-.82-.43-.91-1.64-.13-2.17l.86-.46c-1.08-.17-2.1-.46-1.96-1.79.04-.41.3-.86.65-1.08,1.06-.64,3.06-.26,4.3-.48ZM1387.4,836.32c-1.52.22-1.58,2.74.1,2.96.45.06.8.13.86-.39.03-.24-.09-2.09-.14-2.29-.11-.37-.51-.33-.81-.29ZM1388.35,839.4c-1.79-.59-2.01,2.47-.7,2.72,1.44.27.52-1.93.7-2.72Z"/>
        <path class="cls-2" d="M1379.48,835.95c1.55-1.69-2.32-2.26-2.32-.75,0,1.24,2.06.35,2.46,1.36.28.7-.84,1.09-.84,1.17,2.1,1.05.85,3.33-1.38,2.53-.2-.07-.5-.37-.63-.37-.18.01-.67.58-1.21.25-.8-.48.83-1.68.58-.06.87-.18.27-.85.49-1.52.38-1.16,1.24-.71,1.96-.92.25-.07.42-.48.3-.66-.19-.28-2.74.07-2.72-1.31.03-1.64,2.43-1.66,3.56-1.2,1.22.49.92,1.39-.26,1.47ZM1378.18,837.8c-.63.16-.89,2.43-.12,2.5.89.07,1.05-2.73.12-2.5Z"/>
        <path class="cls-2" d="M1372.57,834.8s-.03.55,0,.69c.54-.57,2-.64,2.33.14.38.9-.52,2.73-.38,3.83.03.28.3.17.35.4l-1.61-.23c.13-.73.94-3.64.63-4.15-.4-.68-1.29.11-1.5.69-.11.31-.54,2.36-.52,2.59.03.29.37.39.46.63l-1.61-.23c-.16-.14.92-3.49.68-4.19-.07-.2-.35-.1-.33-.3.25.13,1.44.06,1.5.11Z"/>
        <path class="cls-2" d="M1410.12,833.53c-.82.72-1.19.63-.77,1.98.29.95.79,1.46,1.81,1.36-1.23.89-3.06.2-2.97-1.41.05-.85,1.07-1.93,1.93-1.93Z"/>
        <path class="cls-2" d="M1410.12,833.53c.16-.14.28-.09.21-.37-.03-.13-.62-1.42-.69-1.51-.29-.38-.6-.32-.97-.08l-.06-.23,2.53-.92c.02.18-.25.14-.36.28-.27.34.16,1.06.3,1.45.3.78,1.1,2.84,1.5,3.45.27.41.41.37.85.24-.01.17-.18.18-.29.23-.42.22-1.6.76-2.02.8.29-.21.51-.32.44-.72-.02-.14-.94-2.31-1.03-2.44-.14-.2-.23-.18-.45-.18Z"/>
        <path class="cls-2" d="M1382.01,838.71c1.28-.33,2.3-2.19.34-2.13.6-.69,1.98-.59,2.08.46.16,1.75-2.17,1.2-2.4,1.98-.19.64-.06,1.67.78,1.65.03.18-.16.12-.28.11-2.06-.14-1.6-1.77-1.56-3.4,0-.31.23-.75.02-1.02-.12-.15-.39.04-.36-.18,2.13-.59,1.37,1.25,1.38,2.53Z"/>
        <path class="cls-2" d="M1366.35,836.06l1.26.35c.03.24-.39.05-.46.11-.12.12-.16,1.29.11,1.56.59.6,1.35-.56,1.49-1.05.09-.33-.65-.1-.68-.39.72.15.84.14.92-.63.16-1.53-.87-2.37-2.13-1.33-.06-.53.86-.93,1.38-.92,3.22.06,1.93,5.71-1.06,4.52-.99-.4-1.14-1.26-.84-2.21Z"/>
        <path class="cls-2" d="M1356.83,834.3c-.59-.58-.4-1.35-.15-2.03l1.15.46c.03.22-.23.03-.36.19-.31.36-.45,1.67.3,1.67.54,0,.94-.72,1.21-1.11l-.92-.52c.28-.11.76.37.92.29.58-.28.89-2.57-.64-2.61-.4,0-.62.3-.97.18.85-.92,2.37-.71,2.94.4,1.04,2.01-1.67,4.88-3.48,3.08Z"/>
        <path class="cls-2" d="M1363.69,836.86c.06-.8,1.26-2.99,1.16-3.62-.03-.23-.28-.4-.51-.38-.31.03-.46.51-.77.38.48-.92,2.04-.78,2.18.24.11.75-1.23,3.61-1.03,3.84.04.05.57,0,.57.24-1.08-.49-.81.71-1.04.92-.1.09-.91-.21-1.15-.11l.46-1.38c-.37.05-1.47-.58-1.67-.56-.21.02-.27.94-.51,1.09-.1.06-.79-.31-1.04-.18l.46-1.37c-.1-.14-1.01-.08-.92-.47.36.07.85.58,1.14.16.5-.73.79-2.39,1.25-3.23-.02-.45-.36-.63-.78-.44-.16.07-.21.35-.46.29.48-.98,2.14-.63,2.18.41.03.73-1.35,3.21-1.25,3.54.07.23,1.62.72,1.71.65Z"/>
        <path class="cls-2" d="M1395.95,836.87c-.31-.2-.3-.62-.52-.91-.74-1-2.18-.28-1.44.74.54.74,3.16,1.17,2.06,2.75-.64.92-2.3.32-2.4.42-.06.06.11.38-.12.34l-.23-1.5.52.69c.39.73,1.69.58,1.56-.28s-2.4-1.01-2.54-2.19.75-1.57,1.79-1.57c.25,0,.61.18.79.12.2-.07.11-.36.3-.34l.23,1.73Z"/>
        <path class="cls-2" d="M1402.28,833.87c-.12.14-.5-.03-.44.6.04.38.7,2.77.87,3.05.21.35.44.24.6.49-.53.01-1.03.23-1.5.46.1-.33-.33-.73-.34-.77-.05-.23.04-.5-.03-.76-.11-.41-.59-2.39-.86-2.48-.23-.08-.54.06-.73-.08l2.36-.75c.1-.02.07.21.06.23Z"/>
        <path class="cls-2" d="M1398.48,834.68c-.18.29-.45.15-.47.63-.01.35.48,2.56.61,2.97.15.47.31.52.77.61l-1.61.52c-.17-.15-.54-3.56-.91-4.08-.13-.18-.47.03-.59-.13l2.19-.52Z"/>
        <path class="cls-2" d="M1405.05,835.49c.09-.61.97-.85.64-1.85s-1.25,0-1.33,0c.08-1.56,3.03-1.4,2.2.53-.09.21-1.33,1.27-1.51,1.32Z"/>
        <path class="cls-2" d="M1404.36,833.64c-.01.28.33,1.5.46,1.77.06.12.11.11.23.08-.07.43.16,1.37.58,1.55.21.1.56-.04.57.17-.59.14-1.11.42-1.65-.01-.64-.5-1.14-3.28-1.35-3.43-.15-.11-.49.14-.68.1.17-.37.73-.66,1.12-.66s.58.43.73.43Z"/>
        <path class="cls-2" d="M1398.45,840.24c1.36-.3,1.2,1.35-.02,1.12-.56-.11-.62-.98.02-1.12Z"/>
        <path class="cls-2" d="M1400.67,838.6l.69-.46c-.01.62-1.23.94-1.51.5-.73-1.16,1.47-1.76.82-.04Z"/>
        <path class="cls-2" d="M1382.93,840.67l.46-.29c-1.25-.96.67-1.71.78-.68.06.59-.71,1.02-1.24.96Z"/>
        <path class="cls-2" d="M1406.78,836.75s.04-.13-.09-.22c-.1-.06-.25-.05-.38-.17-.78-.77.85-1.56.98-.43.04.3-.39.9-.52.82Z"/>
      </g>
      <path class="cls-2" d="M1416.8,829.04c-.05-.33-.8-1.25-.64-1.5.07-.11,1.76-1.18,2.06-1.4,17.48-12.84,26.51-33.33,23.56-55.08-2.21-16.32-11.76-31.38-25.54-40.29-.14-.24.56-1.23.74-1.48,13.62,8.73,23.23,23.29,26.05,39.26,1.38,7.83,1.23,15.66-.46,23.43-3.3,15.17-12.69,28.76-25.76,37.07Z"/>
      <path class="cls-2" d="M1352.18,729.28l.64,1.39c-7.06,4.71-13.17,10.85-17.62,18.09-8.67,14.09-10.89,31.33-6.11,47.22,3.87,12.88,12.37,24.24,23.62,31.56.14.21-.63,1.17-.7,1.5-11.69-7.52-20.51-19.3-24.5-32.63-6.89-22.98.59-47.9,18.98-63.1.56-.46,5.41-4.24,5.7-4.03Z"/>
      <path class="cls-2" d="M1438.64,779.19c0,29.93-24.26,54.2-54.19,54.2s-54.19-24.27-54.19-54.2,24.26-54.2,54.19-54.2,54.19,24.27,54.19,54.2ZM1438.45,779.19c0-29.83-24.18-54.01-54-54.01s-54,24.18-54,54.01,24.18,54.01,54,54.01,54-24.18,54-54.01Z"/>
      <path class="cls-2" d="M1359.09,748.75c.33-.04.65.11.97.12,6.52.23,13.07.03,19.58,0,7.92-.05,16.52-.02,22.06,6.52,4.62,5.46,4.14,14.27.1,19.9-5.71,7.95-16.4,8.26-25.32,8.03.17,4.93-.23,10.01,0,14.92.06,1.43.24,3.73,1.11,4.88,1.33,1.77,4.38,1.68,6.38,1.85v-20.73c5.69-.18,11.95.88,16.92-2.49.68-.46,1.25-1.06,1.91-1.54,6.44,1.17,11.37,5.75,11.8,12.5.32,4.95-.71,9.01-5.15,11.67-5.28,3.16-12.35,2.4-18.3,2.33-9.53-.12-19.13-.43-28.68-.12-1.14.04-2.27-.04-3.4.12v-1.61c3.17-.28,5.54-.17,6.09-3.87.3-15.22.04-30.49.13-45.72-.18-1.36-.22-3-1.33-3.97-1.18-1.02-3.41-1.03-4.89-1.15v-1.61ZM1376.48,781.69c5.61.11,11.48.38,14.65-5.11,2.96-5.14,3.01-18.22-.83-22.94-2.11-2.6-5.8-3.49-9.04-3.29-4.52.28-4.5,2.61-4.78,6.51v24.83ZM1392.26,786.42v15.5c.21,2.23.8,3.33,3.16,3.51,6.09.48,9.72-2.25,10.43-8.36.37-3.21-.1-8.71-3.49-10.21-2.93-1.3-6.99-.74-10.1-.44Z"/>
      <g>
        <path class="cls-2" d="M1383.51,719.49c1.2-.08,2.3.75,1.85,2.02-.59,1.69-3.5.83-4.84,1.2.04-.26.42-.19.52-.34.31-.46-.13-4.5-.09-5.34-.07-.4-.56-.18-.67-.43,1.09.15,4.23-.64,4.58.89.28,1.21-.62,1.38-1.36,1.99ZM1382.24,719.37c2.13.66,1.85-3.3.28-2.66-.82.33-.15,1.98-.28,2.66ZM1382.24,719.49v2.59c0,.57,1.82.75,1.96-.8.13-1.46-.59-1.88-1.96-1.79Z"/>
        <path class="cls-2" d="M1394.45,718.91c-1.05.26.01,1.28-.8,2.02-.62.56-1.41.03-1.91.51-.73.71,1.17.69,1.61.82.55.16,1.02.43.99,1.09-.09,2.03-4.21,1.45-4.37.44-.07-.44.46-.78.84-.84.47-.07-.12.43-.15.54-.43,1.48,3.38,1.48,2.66-.05-.36-.76-2.57-.11-2.45-1.34.05-.53.59-.62.92-.93-.72-.26-1.12-.66-1.03-1.48.14-1.3,1.74-1.33,2.68-.86.13.06.3.31.36.31.15,0,.64-.66,1.2-.26.79.55-.77,1.62-.57.05ZM1392.34,718.7c-.53.15-.7,1.82-.42,2.22.89,1.26,1.73-2.6.42-2.22Z"/>
        <path class="cls-2" d="M1360.59,724.79c.78-.66.87-.96.55-1.99s-.8-1.43-1.82-1.24c.19-.15.25-.19.48-.27,2.8-.94,3.54,2.87.78,3.49Z"/>
        <path class="cls-2" d="M1359.32,721.56c-.1.08-.29.19-.32.31-.21.64.9,2.3,1.02,3.03.19-.05.38-.07.57-.11-.17.15-.3.18-.47.3.4.72.53,2.49,1.68,1.78l.06.23-2.53.92c.16-.29.59-.28.44-.72-.59-1.33-1.04-2.8-1.65-4.12-.3-.65-.25-.87-1.09-.7l1.96-.87c.11-.06.24-.03.34-.05Z"/>
        <path class="cls-2" d="M1389.96,722.6c.02.17-.3.21-.41.22-.66.06-.95-.01-1.14-.68-.64,1-2.5.71-2.34-.6s2.29-1,2.49-1.67c.06-.22.06-1.11-.03-1.3-.15-.3-.65-.19-.75-.46,2.03,0,1.89.95,1.85,2.6-.02.57-.51,1.93.34,1.9ZM1388.58,720.18c-.35.21-1.01.42-1.25.76-.38.54-.27,1.55.54,1.35.93-.23.48-1.4.71-2.11Z"/>
        <path class="cls-2" d="M1365.43,723.06c.15-.46-.19-1.59-.66-1.71-.25-.07-.64.24-.72-.01.53-.18,1.38-.42,1.89-.1.55.34,1.06,2.8,1.32,3.49l.47.12c-.45.54-1.13.57-1.61.06-.31,1.21-2.1,1.49-2.35.09-.14-.76,1.03-1.64,1.66-1.94-.17.52-.65.6-.7,1.21-.05.69.41,1.29,1.09.85s-.17-1.54-.16-2.18c-.03-.03-.16.08-.23.12Z"/>
        <path class="cls-2" d="M1413.8,727.09l-1.38-.58c.02-.29.49.06.57,0,.03-.02.21-.65.22-.76.29-2.2-1.97-.16-1.71.18.03.04.28-.09.23.12-.47-.15-.81,1.11-.81,1.44.02,1.04,1.29,1.5,2.08.86-.17.71-1.21.78-1.81.6-2.68-.8-.73-5.56,1.95-4.26,1.05.51.98,1.43.66,2.39Z"/>
        <path class="cls-2" d="M1402.05,722.37c-.11,0-.22-.03-.33.02-.79,1.56.32,3.38,1.94,2.06-.32.96-1.55,1.12-2.34.68-2.06-1.14-.5-5.32,2.14-4.22.91.38.94,1.31.78,2.16-.68-.24-1.62-.31-2.19-.69.48,0,.8.26,1.26.22.43-.99-.03-2.48-1.09-1.26-.29.33-.59.75-.17,1.04Z"/>
        <path class="cls-2" d="M1407.35,720.87l-.46,1.38,1.77.59c.15-.02.37-1.01.42-1.04.12-.09.82.23,1.03.23-.22,1.01-.95,1.31.46,1.61-.17.37-.88-.35-1.03-.23l-1.36,3.43c-.03.81.49.39,1.01.43-.57.79-1.96.17-1.96-.69,0-.64,1.52-3.49,1.39-3.63l-1.84-.58c-.02.74-1.41,3.29-1.1,3.8.23.38.85.07,1.04-.23.16.38-.68.72-1.03.69-.93-.09-1.09-.83-.94-1.62.1-.54,1.11-2.68,1.07-2.94-.04-.31-.76-.12-.66-.51,1.23.73.73-.47,1.15-.76.18-.13.77.17,1.04.07Z"/>
        <path class="cls-2" d="M1377.29,719.95l-.92-1.09c-.53-.17-1.19-.09-1.16.58.05.93,2.13,1.09,2.46,2.15.35,1.12-.7,1.76-1.71,1.72-.29-.01-.77-.23-.81-.23-.15.01-.08.46-.4.34l-.11-1.61.57,1.06c.51.55,1.54.44,1.51-.43-.04-1.11-2.36-1.14-2.42-2.55-.07-1.75,2.52-.97,2.64-1.09.06-.06-.11-.38.12-.34l.23,1.5Z"/>
        <path class="cls-2" d="M1368.76,720.06s.08.57.12.69l.23-.23c-.12.58.37,3.31.81,3.51.24.11.5,0,.69.11l-2.42.63c0-.2.3-.14.41-.34.09-.18.05-.31.03-.49-.05-.44-.58-2.58-.76-2.94-.06-.11-.14-.27-.25-.32-.18-.09-.47.03-.46-.17.26.02,1.55-.52,1.61-.46Z"/>
        <path class="cls-2" d="M1397.33,719.37c-.12,1.04-.89,2.88-.82,3.86.01.18.06.37.24.46.27.13.7-.07.81.17-3.39.67-1.53-2.21-1.49-3.86.01-.59-.11-.49-.47-.86.58.08,1.12.32,1.73.23Z"/>
        <path class="cls-2" d="M1399.86,719.95c-.07.75-1.01,3.64-.75,4.15.1.2.4.14.41.34l-1.61-.23c-.05-.49.41-.76-.23-.63.54-.45,1.07-2.87.9-3.43-.06-.18-.27-.25-.32-.43l1.61.23Z"/>
        <path class="cls-2" d="M1373.63,723.26c.15.15.53.03.55.25l-2.19.35c-.02-.21.38-.15.44-.25.13-.2-.4-3.15-.55-3.51s-.3-.42-.7-.4c-.21-.15,1.48-.4,1.61-.57.19.6.56,3.85.83,4.12Z"/>
        <path class="cls-2" d="M1371.73,717.21c1.08-.24,1.15,1.05.27,1.19s-1.08-1.01-.27-1.19Z"/>
        <path class="cls-2" d="M1369.92,719.95c-.18-.08-.53.27-.57.23-.17-.17.13-.25.21-.3,1.35-.75,1.8,1.18.65,1.12-.59-.03-.6-.66-.29-1.05Z"/>
        <path class="cls-2" d="M1387.65,718.22l-.46.29c1.33.88-.76,1.75-.75.57,0-.57.71-.9,1.21-.86Z"/>
        <path class="cls-2" d="M1363.93,721.56l-.23.34c1.01.02.85,1.42-.15,1.13-.63-.18-.26-1.45.38-1.48Z"/>
      </g>
    </g>
    <g>
      <g>
        <path class="cls-2" d="M1174.51,66.29c-.04.24-.44.08-.58.31-.29.46,0,1.24,0,1.71.03,1.23.03,2.45.13,3.67l.67.42c-1.17-.19-2.91.42-3.96-.13-.82-.43-.91-1.64-.13-2.17l.86-.46c-1.08-.17-2.1-.46-1.96-1.79.04-.41.3-.86.65-1.08,1.06-.64,3.06-.26,4.3-.48ZM1171.83,66.54c-1.52.22-1.58,2.74.1,2.96.45.06.8.13.86-.39.03-.24-.09-2.09-.14-2.29-.11-.37-.51-.33-.81-.29ZM1172.79,69.63c-1.79-.59-2.01,2.47-.7,2.72,1.44.27.52-1.93.7-2.72Z"/>
        <path class="cls-2" d="M1163.92,66.17c1.55-1.69-2.32-2.26-2.32-.75,0,1.24,2.06.35,2.46,1.36.28.7-.84,1.09-.84,1.17,2.1,1.05.85,3.33-1.38,2.53-.2-.07-.5-.37-.63-.37-.18.01-.67.58-1.21.25-.8-.48.83-1.68.58-.06.87-.18.27-.85.49-1.52.38-1.16,1.24-.71,1.96-.92.25-.07.42-.48.3-.66-.19-.28-2.74.07-2.72-1.31.03-1.64,2.43-1.66,3.56-1.2,1.22.49.92,1.39-.26,1.47ZM1162.62,68.03c-.63.16-.89,2.43-.12,2.5.89.07,1.05-2.73.12-2.5Z"/>
        <path class="cls-2" d="M1157.01,65.02s-.03.55,0,.69c.54-.57,2-.64,2.33.14.38.9-.52,2.73-.38,3.83.03.28.3.17.35.4l-1.61-.23c.13-.73.94-3.64.63-4.15-.4-.68-1.29.11-1.5.69-.11.31-.54,2.36-.52,2.59.03.29.37.39.46.63l-1.61-.23c-.16-.14.92-3.49.68-4.19-.07-.2-.35-.1-.33-.3.25.13,1.44.06,1.5.11Z"/>
        <path class="cls-2" d="M1194.55,63.75c-.82.72-1.19.63-.77,1.98.29.95.79,1.46,1.81,1.36-1.23.89-3.06.2-2.97-1.41.05-.85,1.07-1.93,1.93-1.93Z"/>
        <path class="cls-2" d="M1194.55,63.75c.16-.14.28-.09.21-.37-.03-.13-.62-1.42-.69-1.51-.29-.38-.6-.32-.97-.08l-.06-.23,2.53-.92c.02.18-.25.14-.36.28-.27.34.16,1.06.3,1.45.3.78,1.1,2.84,1.5,3.45.27.41.41.37.85.24-.01.17-.18.18-.29.23-.42.22-1.6.76-2.02.8.29-.21.51-.32.44-.72-.02-.14-.94-2.31-1.03-2.44-.14-.2-.23-.18-.45-.18Z"/>
        <path class="cls-2" d="M1166.45,68.94c1.28-.33,2.3-2.19.34-2.13.6-.69,1.98-.59,2.08.46.16,1.75-2.17,1.2-2.4,1.98-.19.64-.06,1.67.78,1.65.03.18-.16.12-.28.11-2.06-.14-1.6-1.77-1.56-3.4,0-.31.23-.75.02-1.02-.12-.15-.39.04-.36-.18,2.13-.59,1.37,1.25,1.38,2.53Z"/>
        <path class="cls-2" d="M1150.79,66.29l1.26.35c.03.24-.39.05-.46.11-.12.12-.16,1.29.11,1.56.59.6,1.35-.56,1.49-1.05.09-.33-.65-.1-.68-.39.72.15.84.14.92-.63.16-1.53-.87-2.37-2.13-1.33-.06-.53.86-.93,1.38-.92,3.22.06,1.93,5.71-1.06,4.52-.99-.4-1.14-1.26-.84-2.21Z"/>
        <path class="cls-2" d="M1141.26,64.52c-.59-.58-.4-1.35-.15-2.03l1.15.46c.03.22-.23.03-.36.19-.31.36-.45,1.67.3,1.67.54,0,.94-.72,1.21-1.11l-.92-.52c.28-.11.76.37.92.29.58-.28.89-2.57-.64-2.61-.4,0-.62.3-.97.18.85-.92,2.37-.71,2.94.4,1.04,2.01-1.67,4.88-3.48,3.08Z"/>
        <path class="cls-2" d="M1148.13,67.09c.06-.8,1.26-2.99,1.16-3.62-.03-.23-.28-.4-.51-.38-.31.03-.46.51-.77.38.48-.92,2.04-.78,2.18.24.11.75-1.23,3.61-1.03,3.84.04.05.57,0,.57.24-1.08-.49-.81.71-1.04.92-.1.09-.91-.21-1.15-.11l.46-1.38c-.37.05-1.47-.58-1.67-.56-.21.02-.27.94-.51,1.09-.1.06-.79-.31-1.04-.18l.46-1.37c-.1-.14-1.01-.08-.92-.47.36.07.85.58,1.14.16.5-.73.79-2.39,1.25-3.23-.02-.45-.36-.63-.78-.44-.16.07-.21.35-.46.29.48-.98,2.14-.63,2.18.41.03.73-1.35,3.21-1.25,3.54.07.23,1.62.72,1.71.65Z"/>
        <path class="cls-2" d="M1180.39,67.09c-.31-.2-.3-.62-.52-.91-.74-1-2.18-.28-1.44.74.54.74,3.16,1.17,2.06,2.75-.64.92-2.3.32-2.4.42-.06.06.11.38-.12.34l-.23-1.5.52.69c.39.73,1.69.58,1.56-.28s-2.4-1.01-2.54-2.19.75-1.57,1.79-1.57c.25,0,.61.18.79.12.2-.07.11-.36.3-.34l.23,1.73Z"/>
        <path class="cls-2" d="M1186.72,64.1c-.12.14-.5-.03-.44.6.04.38.7,2.77.87,3.05.21.35.44.24.6.49-.53.01-1.03.23-1.5.46.1-.33-.33-.73-.34-.77-.05-.23.04-.5-.03-.76-.11-.41-.59-2.39-.86-2.48-.23-.08-.54.06-.73-.08l2.36-.75c.1-.02.07.21.06.23Z"/>
        <path class="cls-2" d="M1182.92,64.91c-.18.29-.45.15-.47.63-.01.35.48,2.56.61,2.97.15.47.31.52.77.61l-1.61.52c-.17-.15-.54-3.56-.91-4.08-.13-.18-.47.03-.59-.13l2.19-.52Z"/>
        <path class="cls-2" d="M1189.49,65.71c.09-.61.97-.85.64-1.85s-1.25,0-1.33,0c.08-1.56,3.03-1.4,2.2.53-.09.21-1.33,1.27-1.51,1.32Z"/>
        <path class="cls-2" d="M1188.8,63.87c-.01.28.33,1.5.46,1.77.06.12.11.11.23.08-.07.43.16,1.37.58,1.55.21.1.56-.04.57.17-.59.14-1.11.42-1.65-.01-.64-.5-1.14-3.28-1.35-3.43-.15-.11-.49.14-.68.1.17-.37.73-.66,1.12-.66s.58.43.73.43Z"/>
        <path class="cls-2" d="M1182.89,70.46c1.36-.3,1.2,1.35-.02,1.12-.56-.11-.62-.98.02-1.12Z"/>
        <path class="cls-2" d="M1185.11,68.82l.69-.46c-.01.62-1.23.94-1.51.5-.73-1.16,1.47-1.76.82-.04Z"/>
        <path class="cls-2" d="M1167.37,70.89l.46-.29c-1.25-.96.67-1.71.78-.68.06.59-.71,1.02-1.24.96Z"/>
        <path class="cls-2" d="M1191.22,66.98s.04-.13-.09-.22c-.1-.06-.25-.05-.38-.17-.78-.77.85-1.56.98-.43.04.3-.39.9-.52.82Z"/>
      </g>
      <path class="cls-2" d="M1201.24,59.26c-.05-.33-.8-1.25-.64-1.5.07-.11,1.76-1.18,2.06-1.4,17.48-12.84,26.51-33.33,23.56-55.08-2.21-16.32-11.76-31.38-25.54-40.29-.14-.24.56-1.23.74-1.48,13.62,8.73,23.23,23.29,26.05,39.26,1.38,7.83,1.23,15.66-.46,23.43-3.3,15.17-12.69,28.76-25.76,37.07Z"/>
      <path class="cls-2" d="M1136.62-40.5l.64,1.39c-7.06,4.71-13.17,10.85-17.62,18.09-8.67,14.09-10.89,31.33-6.11,47.22,3.87,12.88,12.37,24.24,23.62,31.56.14.21-.63,1.17-.7,1.5-11.69-7.52-20.51-19.3-24.5-32.63-6.89-22.98.59-47.9,18.98-63.1.56-.46,5.41-4.24,5.7-4.03Z"/>
      <path class="cls-2" d="M1223.08,9.42c0,29.93-24.26,54.2-54.19,54.2s-54.19-24.27-54.19-54.2,24.26-54.2,54.19-54.2,54.19,24.27,54.19,54.2ZM1222.89,9.42c0-29.83-24.18-54.01-54-54.01s-54,24.18-54,54.01,24.18,54.01,54,54.01,54-24.18,54-54.01Z"/>
      <path class="cls-2" d="M1143.53-21.03c.33-.04.65.11.97.12,6.52.23,13.07.03,19.58,0,7.92-.05,16.52-.02,22.06,6.52,4.62,5.46,4.14,14.27.1,19.9-5.71,7.95-16.4,8.26-25.32,8.03.17,4.93-.23,10.01,0,14.92.06,1.43.24,3.73,1.11,4.88,1.33,1.77,4.38,1.68,6.38,1.85V14.45c5.69-.18,11.95.88,16.92-2.49.68-.46,1.25-1.06,1.91-1.54,6.44,1.17,11.37,5.75,11.8,12.5.32,4.95-.71,9.01-5.15,11.67-5.28,3.16-12.35,2.4-18.3,2.33-9.53-.12-19.13-.43-28.68-.12-1.14.04-2.27-.04-3.4.12v-1.61c3.17-.28,5.54-.17,6.09-3.87.3-15.22.04-30.49.13-45.72-.18-1.36-.22-3-1.33-3.97-1.18-1.02-3.41-1.03-4.89-1.15v-1.61ZM1160.92,11.92c5.61.11,11.48.38,14.65-5.11,2.96-5.14,3.01-18.22-.83-22.94-2.11-2.6-5.8-3.49-9.04-3.29-4.52.28-4.5,2.61-4.78,6.51V11.92ZM1176.7,16.64v15.5c.21,2.23.8,3.33,3.16,3.51,6.09.48,9.72-2.25,10.43-8.36.37-3.21-.1-8.71-3.49-10.21-2.93-1.3-6.99-.74-10.1-.44Z"/>
    </g>
    <g>
      <g>
        <path class="cls-2" d="M127.12,151.7c-.09.23-.45-.03-.64.16-.39.37-.3,1.21-.4,1.66-.27,1.2-.56,2.38-.74,3.6l.56.57c-1.09-.47-2.93-.28-3.81-1.07-.7-.61-.49-1.81.39-2.14l.95-.24c-1.01-.42-1.93-.95-1.48-2.2.14-.38.5-.77.89-.89,1.19-.37,3.03.47,4.29.56ZM124.46,151.31c-1.53-.15-2.19,2.28-.61,2.9.43.17.74.32.93-.17.09-.23.41-2.05.4-2.26-.02-.39-.42-.44-.72-.47ZM124.65,154.53c-1.6-1-2.55,1.92-1.32,2.48,1.33.61.97-1.75,1.32-2.48Z"/>
        <path class="cls-2" d="M116.85,149.07c1.91-1.27-1.71-2.75-2.07-1.28-.29,1.2,1.91.83,2.07,1.91.11.75-1.07.86-1.09.94,1.79,1.52.03,3.44-1.95,2.13-.18-.12-.39-.48-.53-.51-.18-.03-.78.41-1.24-.04-.66-.66,1.21-1.43.57.08.89.03.46-.76.84-1.36.65-1.03,1.37-.39,2.13-.42.26-.01.52-.37.45-.57-.12-.32-2.68-.58-2.33-1.92.42-1.59,2.75-1.03,3.75-.32,1.07.76.56,1.57-.6,1.37ZM115.15,150.56c-.65,0-1.45,2.15-.71,2.39.85.28,1.67-2.4.71-2.39Z"/>
        <path class="cls-2" d="M110.42,146.3s-.16.53-.16.67c.66-.43,2.09-.15,2.23.69.16.97-1.15,2.52-1.28,3.63-.03.28.25.24.25.47l-1.51-.61c.3-.68,1.78-3.31,1.6-3.88-.23-.75-1.28-.21-1.62.31-.18.28-1.08,2.16-1.12,2.4-.04.29.27.46.3.73l-1.51-.61c-.12-.18,1.73-3.17,1.65-3.91-.02-.21-.32-.19-.25-.37.22.18,1.39.4,1.43.47Z"/>
        <path class="cls-2" d="M147.19,154.01c-.97.5-1.3.33-1.22,1.74.05.99.42,1.61,1.44,1.75-1.4.57-3.02-.53-2.55-2.08.25-.82,1.5-1.62,2.33-1.41Z"/>
        <path class="cls-2" d="M147.19,154.01c.18-.1.29-.02.3-.31,0-.13-.26-1.52-.31-1.63-.19-.44-.51-.45-.92-.3v-.23s2.68-.29,2.68-.29c-.03.18-.28.08-.41.18-.34.27-.1,1.07-.05,1.48.1.83.39,3.02.64,3.71.17.47.31.46.77.44-.05.16-.22.13-.33.16-.46.11-1.74.36-2.15.3.33-.14.57-.19.6-.59.01-.14-.36-2.47-.42-2.61-.09-.22-.18-.23-.39-.28Z"/>
        <path class="cls-2" d="M118.66,152.36c1.32-.02,2.75-1.58.84-1.99.74-.53,2.07-.1,1.91.94-.26,1.74-2.39.65-2.8,1.35-.34.58-.46,1.61.37,1.79-.01.19-.18.08-.3.04-1.97-.63-1.13-2.1-.71-3.68.08-.3.4-.67.26-.99-.08-.17-.39-.05-.3-.26,2.21-.07,1.03,1.54.74,2.79Z"/>
        <path class="cls-2" d="M104.08,146.05l1.15.64c-.03.24-.39-.05-.47,0-.14.09-.46,1.21-.27,1.54.43.73,1.45-.22,1.7-.67.17-.3-.6-.25-.57-.54.67.31.78.34,1.04-.4.52-1.45-.28-2.51-1.75-1.79.07-.53,1.05-.7,1.56-.57,3.11.82.51,6-2.1,4.14-.87-.62-.8-1.5-.29-2.35Z"/>
        <path class="cls-2" d="M95.25,142.07c-.43-.7-.07-1.4.34-2.01l1.01.72c-.02.22-.23-.02-.39.1-.39.28-.83,1.52-.11,1.69.52.12,1.08-.48,1.44-.79l-.77-.72c.29-.04.65.54.83.51.63-.14,1.48-2.28,0-2.68-.39-.11-.68.14-.99-.06,1.04-.69,2.47-.13,2.76,1.08.53,2.2-2.78,4.34-4.11,2.16Z"/>
        <path class="cls-2" d="M101.3,146.2c.25-.76,1.94-2.6,1.99-3.24.02-.23-.18-.46-.4-.49-.31-.05-.57.39-.83.19.68-.78,2.17-.27,2.06.75-.08.75-2.05,3.21-1.91,3.49.03.06.56.13.5.36-.93-.73-.96.5-1.23.64-.12.06-.83-.42-1.09-.38l.77-1.23c-.37-.04-1.29-.92-1.49-.94-.21-.03-.49.85-.75.93-.11.04-.7-.49-.97-.43l.77-1.23c-.07-.16-.96-.32-.78-.67.33.16.69.76,1.07.43.66-.59,1.34-2.13,1.98-2.84.08-.44-.2-.7-.65-.61-.17.03-.29.29-.52.17.7-.84,2.23-.11,2.02.92-.15.72-2.07,2.79-2.06,3.14,0,.24,1.4,1.08,1.51,1.04Z"/>
        <path class="cls-2" d="M132.63,153.88c-.25-.26-.15-.67-.29-1.01-.48-1.15-2.05-.79-1.57.38.35.85,2.79,1.89,1.35,3.16-.84.74-2.31-.23-2.43-.16-.08.05.01.39-.2.3l.13-1.51.34.8c.21.81,1.5.97,1.58.1s-2.09-1.55-1.95-2.73,1.1-1.35,2.12-1.09c.24.06.55.32.74.3.21-.02.19-.33.37-.26l-.19,1.73Z"/>
        <path class="cls-2" d="M139.5,152.48c-.15.11-.48-.15-.57.48-.05.37.02,2.86.12,3.17.12.39.37.34.47.62-.52-.11-1.06-.02-1.56.09.18-.3-.15-.79-.15-.83,0-.23.16-.48.15-.74,0-.43,0-2.47-.24-2.62-.2-.13-.54-.07-.69-.25l2.47-.16c.1,0,.01.22,0,.23Z"/>
        <path class="cls-2" d="M135.61,152.36c-.24.24-.47.04-.6.5-.09.33-.15,2.6-.11,3.03.04.49.17.58.61.77l-1.69.12c-.13-.18.32-3.59.09-4.18-.08-.21-.46-.08-.54-.26l2.25.02Z"/>
        <path class="cls-2" d="M141.8,154.7c.24-.57,1.14-.59,1.06-1.64s-1.21-.29-1.29-.31c.45-1.49,3.27-.64,2.01,1.03-.14.18-1.6.91-1.78.92Z"/>
        <path class="cls-2" d="M141.57,152.75c-.08.27-.04,1.54.03,1.82.03.13.08.13.21.13-.17.4-.17,1.37.19,1.65.19.14.55.1.52.3-.6,0-1.17.14-1.6-.41-.5-.64-.32-3.46-.49-3.65-.12-.14-.51.01-.69-.06.25-.32.86-.47,1.24-.37s.46.55.6.59Z"/>
        <path class="cls-2" d="M134.26,157.75c1.39.03.84,1.6-.29,1.09-.52-.24-.37-1.1.29-1.09Z"/>
        <path class="cls-2" d="M136.81,156.68l.78-.28c-.16.6-1.42.62-1.58.13-.43-1.3,1.85-1.36.8.16Z"/>
        <path class="cls-2" d="M119.09,154.48l.51-.17c-.99-1.23,1.06-1.5.92-.47-.08.58-.93.82-1.43.64Z"/>
        <path class="cls-2" d="M143.18,156.35s.07-.12-.04-.24c-.08-.09-.23-.11-.32-.26-.58-.93,1.2-1.31,1.06-.18-.04.3-.59.78-.7.67Z"/>
      </g>
      <path class="cls-2" d="M154.75,151.24c.03-.33-.48-1.41-.27-1.61.09-.09,1.99-.73,2.33-.87,20.04-8.31,33.68-26.06,35.99-47.89,1.73-16.38-3.96-33.28-15.22-45.21-.08-.27.84-1.06,1.07-1.26,11.15,11.72,17.02,28.15,15.95,44.33-.52,7.94-2.53,15.5-6.02,22.64-6.81,13.94-19.17,24.91-33.84,29.87Z"/>
      <path class="cls-2" d="M115.73,38.97l.3,1.5c-7.98,2.89-15.37,7.41-21.42,13.38-11.78,11.62-18.03,27.84-17.18,44.41.7,13.43,6.25,26.49,15.43,36.28.08.24-.89.99-1.04,1.29-9.56-10.08-15.33-23.62-16.03-37.52-1.22-23.96,11.97-46.38,33.45-56.77.65-.32,6.27-2.83,6.49-2.56Z"/>
      <path class="cls-2" d="M187.83,108.03c-7.12,29.07-36.47,46.87-65.54,39.74-29.07-7.12-46.86-36.47-39.74-65.54,7.12-29.07,36.47-46.87,65.54-39.74,29.07,7.12,46.86,36.47,39.74,65.54ZM187.64,107.98c7.1-28.97-10.63-58.21-39.6-65.31s-58.2,10.63-65.3,39.6,10.63,58.21,39.6,65.31,58.2-10.63,65.3-39.6Z"/>
      <path class="cls-2" d="M117.81,59.52c.34.04.6.26.92.35,6.28,1.78,12.68,3.14,19.02,4.65,7.7,1.84,16.05,3.92,19.87,11.58,3.19,6.4.63,14.85-4.64,19.35-7.43,6.36-17.89,4.12-26.5,1.77-1.01,4.83-2.6,9.67-3.56,14.49-.28,1.4-.65,3.68-.08,5,.87,2.04,3.86,2.67,5.76,3.32l4.93-20.14c5.57,1.18,11.4,3.7,17.03,1.61.77-.29,1.46-.73,2.23-1.05,5.98,2.67,9.67,8.29,8.49,14.95-.87,4.88-2.83,8.59-7.78,10.11-5.88,1.81-12.57-.61-18.33-2.09-9.23-2.38-18.48-4.97-27.82-6.94-1.11-.24-2.19-.58-3.33-.7l.38-1.57c3.15.48,5.42,1.16,6.84-2.31,3.92-14.71,7.29-29.6,11.01-44.38.15-1.36.5-2.97-.35-4.17-.9-1.27-3.06-1.81-4.48-2.29l.38-1.57ZM126.86,95.66c5.42,1.45,11.06,3.1,15.44-1.47,4.1-4.29,7.26-16.98,4.66-22.48-1.43-3.03-4.8-4.77-8-5.35-4.46-.81-4.99,1.47-6.19,5.18l-5.91,24.12ZM141.06,104l-3.69,15.05c-.32,2.22,0,3.43,2.24,4.17,5.81,1.91,9.97.12,12.12-5.64,1.13-3.03,1.98-8.49-.96-10.75-2.54-1.96-6.62-2.38-9.7-2.83Z"/>
      <g>
        <path class="cls-2" d="M148.49,36.91c1.19.2,2.05,1.28,1.31,2.4-.98,1.5-3.6-.02-4.99.02.1-.24.45-.08.59-.21.41-.37.95-4.4,1.19-5.21.03-.4-.5-.31-.55-.57,1.02.41,4.26.39,4.24,1.95-.02,1.25-.93,1.2-1.79,1.61ZM147.28,36.5c1.91,1.14,2.58-2.76.91-2.52-.87.13-.61,1.89-.91,2.52ZM147.26,36.61l-.62,2.52c-.13.55,1.59,1.16,2.1-.31.48-1.39-.13-1.96-1.48-2.21Z"/>
        <path class="cls-2" d="M159.25,38.96c-1.08,0-.3,1.25-1.26,1.77-.73.4-1.38-.31-1.98.04-.88.51.97.95,1.37,1.18.5.29.89.66.71,1.29-.57,1.95-4.44.41-4.34-.61.04-.44.63-.65,1.02-.61.47.04-.22.39-.28.49-.77,1.33,2.93,2.24,2.6.58-.17-.82-2.47-.71-2.06-1.89.17-.5.72-.46,1.12-.69-.64-.43-.93-.91-.65-1.69.45-1.23,2.01-.88,2.81-.2.11.09.21.37.28.39.15.04.77-.49,1.23.03.64.73-1.14,1.39-.56-.08ZM157.26,38.25c-.55.02-1.12,1.6-.93,2.06.56,1.43,2.3-2.11.93-2.06Z"/>
        <path class="cls-2" d="M124.96,36.6c.91-.45,1.07-.73,1.01-1.8s-.44-1.58-1.47-1.63c.22-.1.29-.12.53-.14,2.94-.24,2.75,3.63-.07,3.58Z"/>
        <path class="cls-2" d="M124.5,33.17c-.12.05-.32.12-.39.22-.35.57.33,2.45.27,3.19.19,0,.39.02.58.03-.2.1-.33.11-.52.18.21.79-.08,2.54,1.21,2.13v.23s-2.68.29-2.68.29c.23-.24.64-.13.6-.59-.25-1.43-.35-2.97-.63-4.39-.14-.71-.03-.91-.89-.94l2.11-.38c.12-.03.24.02.35.03Z"/>
        <path class="cls-2" d="M154.01,41.47c-.02.17-.35.13-.45.11-.66-.1-.92-.24-.95-.93-.86.82-2.6.09-2.13-1.14s2.47-.43,2.82-1.03c.11-.19.32-1.06.28-1.27-.07-.32-.58-.34-.62-.62,1.97.48,1.61,1.37,1.18,2.96-.15.55-.95,1.75-.12,1.92ZM153.24,38.79c-.39.12-1.08.17-1.4.44-.5.43-.63,1.44.2,1.44.95,0,.8-1.24,1.19-1.88Z"/>
        <path class="cls-2" d="M130.07,36.08c.25-.41.2-1.59-.23-1.82-.23-.12-.68.09-.7-.19.56-.05,1.44-.08,1.86.35.45.46.37,2.97.45,3.71l.43.23c-.57.42-1.23.29-1.58-.33-.59,1.1-2.39.95-2.31-.47.05-.77,1.39-1.35,2.07-1.49-.29.47-.78.43-.97,1.01-.21.66.09,1.35.86,1.08s.2-1.54.36-2.15c-.02-.03-.18.04-.25.06Z"/>
        <path class="cls-2" d="M176.1,51.51l-1.2-.89c.09-.27.46.18.56.14.04-.02.36-.58.4-.68.8-2.07-1.88-.62-1.71-.23.02.05.29-.02.19.17-.42-.25-1.06.88-1.13,1.21-.23,1.02.89,1.77,1.81,1.33-.34.65-1.36.47-1.9.15-2.41-1.41.61-5.58,2.91-3.67.9.74.62,1.62.08,2.48Z"/>
        <path class="cls-2" d="M165.81,44.12c-.11-.02-.21-.08-.32-.06-1.14,1.33-.5,3.36,1.39,2.46-.54.85-1.77.72-2.44.1-1.73-1.6.78-5.28,3.08-3.59.8.59.6,1.5.24,2.28-.6-.39-1.51-.68-1.96-1.19.47.11.71.44,1.17.51.65-.86.56-2.42-.76-1.48-.36.25-.75.59-.41.97Z"/>
        <path class="cls-2" d="M171.32,43.93l-.78,1.23,1.58.99c.15.01.6-.89.66-.91.14-.06.74.41.95.47-.45.93-1.23,1.04.06,1.68-.25.32-.77-.55-.95-.47l-2.14,3c-.22.78.38.5.88.66-.75.63-1.94-.3-1.74-1.14.15-.62,2.31-3.02,2.21-3.19l-1.65-1c-.2.71-2.15,2.86-1.97,3.43.13.42.8.27,1.07.02.07.4-.83.54-1.16.43-.88-.31-.86-1.07-.53-1.79.23-.5,1.72-2.34,1.74-2.6.03-.31-.71-.29-.52-.66,1.02,1,.82-.28,1.29-.46.2-.08.71.35.99.31Z"/>
        <path class="cls-2" d="M142.34,35.88l-.64-1.28c-.47-.29-1.14-.37-1.26.28-.17.91,1.81,1.56,1.88,2.67.08,1.17-1.1,1.54-2.07,1.26-.28-.08-.69-.41-.73-.42-.15-.02-.19.43-.47.23l.27-1.59.3,1.17c.37.66,1.39.79,1.57-.05.23-1.09-2.03-1.67-1.74-3.05.35-1.72,2.68-.34,2.82-.43.08-.05-.01-.39.2-.3l-.13,1.51Z"/>
        <path class="cls-2" d="M134.03,33.96s-.06.57-.05.7l.28-.17c-.25.53-.42,3.3-.05,3.6.2.17.48.11.64.28l-2.5.04c.05-.19.33-.07.48-.24.13-.15.12-.29.14-.47.06-.44.05-2.65-.04-3.03-.03-.12-.07-.29-.17-.37-.15-.13-.47-.08-.41-.28.25.08,1.63-.14,1.67-.07Z"/>
        <path class="cls-2" d="M161.94,40.09c-.36.98-1.55,2.59-1.71,3.55-.03.18-.03.38.12.5.23.19.7.1.74.36-3.46-.16-.96-2.51-.53-4.1.15-.57.01-.5-.25-.95.55.21,1.02.58,1.62.63Z"/>
        <path class="cls-2" d="M164.26,41.25c-.25.71-1.85,3.29-1.72,3.85.05.22.36.23.31.43l-1.51-.61c.07-.49.58-.64-.07-.67.63-.31,1.72-2.54,1.69-3.12-.01-.19-.21-.31-.21-.49l1.51.61Z"/>
        <path class="cls-2" d="M137.99,38.23c.11.18.51.15.47.38l-2.21-.18c.03-.21.4-.05.49-.13.17-.17.36-3.15.3-3.54s-.19-.48-.58-.55c-.17-.2,1.53-.04,1.7-.17.04.63-.37,3.87-.17,4.2Z"/>
        <path class="cls-2" d="M137.59,31.89c1.1.02.86,1.3-.02,1.22s-.81-1.24.02-1.22Z"/>
        <path class="cls-2" d="M135.18,34.13c-.15-.12-.58.14-.61.09-.13-.21.18-.22.28-.24,1.49-.41,1.47,1.58.37,1.24-.57-.17-.43-.78-.03-1.09Z"/>
        <path class="cls-2" d="M152.82,36.67l-.51.17c1.08,1.18-1.16,1.52-.87.38.14-.55.9-.7,1.38-.55Z"/>
        <path class="cls-2" d="M128.98,34.27l-.31.28c.98.26.49,1.58-.41,1.07-.57-.32.09-1.47.72-1.35Z"/>
      </g>
    </g>
  </g>
</svg>