<?xml version="1.0" encoding="UTF-8"?>
<svg id="_레이어_1" data-name="레이어 1" xmlns="http://www.w3.org/2000/svg" xmlns:xlink="http://www.w3.org/1999/xlink" viewBox="0 0 1982.52 1073.24">
  <defs>
    <style>
      .cls-1 {
        stroke-width: 2.5px;
      }

      .cls-1, .cls-2, .cls-3, .cls-4 {
        fill: none;
      }

      .cls-1, .cls-3, .cls-4 {
        stroke-miterlimit: 10;
      }

      .cls-1, .cls-4 {
        stroke: #0b42a1;
      }

      .cls-3 {
        stroke: #023586;
      }

      .cls-5 {
        clip-path: url(#clippath);
      }
    </style>
    <clipPath id="clippath">
      <rect class="cls-2" x="29.69" y="52.67" width="1920" height="961.13"/>
    </clipPath>
  </defs>
  <g class="cls-5">
    <g>
      <circle class="cls-4" cx="422.93" cy="305.41" r="16.56"/>
      <circle class="cls-4" cx="422.93" cy="305.41" r="52.51"/>
      <line class="cls-1" x1="417.58" y1="264.24" x2="422.93" y2="268.27"/>
      <line class="cls-1" x1="396.98" y1="275.87" x2="402.11" y2="271.58"/>
      <line class="cls-1" x1="384.92" y1="293.72" x2="384.68" y2="287.04"/>
      <line class="cls-1" x1="383.59" y1="326.84" x2="383.35" y2="320.15"/>
      <line class="cls-1" x1="390.59" y1="309.29" x2="390.35" y2="302.6"/>
      <line class="cls-1" x1="401.77" y1="294.68" x2="396.43" y2="290.65"/>
      <line class="cls-1" x1="401.77" y1="322.9" x2="396.43" y2="318.87"/>
      <line class="cls-1" x1="403.8" y1="342.24" x2="397.51" y2="339.96"/>
      <line class="cls-1" x1="407.39" y1="282.79" x2="412.53" y2="278.5"/>
      <line class="cls-1" x1="423.32" y1="281.26" x2="429.9" y2="280.03"/>
      <line class="cls-1" x1="416.92" y1="328.38" x2="423.59" y2="328.93"/>
      <line class="cls-1" x1="423.59" y1="341.85" x2="428.93" y2="345.87"/>
      <line class="cls-1" x1="442.53" y1="269.71" x2="449.06" y2="271.15"/>
      <line class="cls-1" x1="444.44" y1="287.59" x2="450.17" y2="291.05"/>
      <line class="cls-1" x1="451.87" y1="319.75" x2="458.32" y2="317.98"/>
      <line class="cls-1" x1="445.44" y1="305.95" x2="451.87" y2="304.1"/>
      <line class="cls-1" x1="444.64" y1="338.56" x2="449.97" y2="334.51"/>
      <line class="cls-1" x1="435.39" y1="333.46" x2="440.33" y2="328.95"/>
      <line class="cls-1" x1="462.89" y1="306.52" x2="462.85" y2="299.83"/>
    </g>
    <g>
      <circle class="cls-4" cx="1415.15" cy="210.75" r="16.56"/>
      <circle class="cls-4" cx="1415.15" cy="210.75" r="52.51"/>
      <line class="cls-1" x1="1409.81" y1="169.57" x2="1415.15" y2="173.6"/>
      <line class="cls-1" x1="1389.2" y1="181.2" x2="1394.34" y2="176.91"/>
      <line class="cls-1" x1="1377.14" y1="199.06" x2="1376.9" y2="192.37"/>
      <line class="cls-1" x1="1375.81" y1="232.17" x2="1375.57" y2="225.49"/>
      <line class="cls-1" x1="1382.81" y1="214.63" x2="1382.58" y2="207.94"/>
      <line class="cls-1" x1="1393.99" y1="200.01" x2="1388.65" y2="195.98"/>
      <line class="cls-1" x1="1393.99" y1="228.23" x2="1388.65" y2="224.2"/>
      <line class="cls-1" x1="1396.02" y1="247.57" x2="1389.73" y2="245.29"/>
      <line class="cls-1" x1="1399.61" y1="188.12" x2="1404.75" y2="183.84"/>
      <line class="cls-1" x1="1415.54" y1="186.6" x2="1422.12" y2="185.36"/>
      <line class="cls-1" x1="1409.14" y1="233.71" x2="1415.81" y2="234.27"/>
      <line class="cls-1" x1="1415.81" y1="247.18" x2="1421.15" y2="251.21"/>
      <line class="cls-1" x1="1434.75" y1="175.05" x2="1441.28" y2="176.48"/>
      <line class="cls-1" x1="1436.66" y1="192.92" x2="1442.39" y2="196.39"/>
      <line class="cls-1" x1="1444.09" y1="225.09" x2="1450.54" y2="223.31"/>
      <line class="cls-1" x1="1437.66" y1="211.28" x2="1444.09" y2="209.44"/>
      <line class="cls-1" x1="1436.86" y1="243.89" x2="1442.19" y2="239.84"/>
      <line class="cls-1" x1="1427.61" y1="238.8" x2="1432.55" y2="234.29"/>
      <line class="cls-1" x1="1455.11" y1="211.86" x2="1455.07" y2="205.17"/>
    </g>
    <g>
      <circle class="cls-4" cx="1929.51" cy="666.62" r="16.56"/>
      <circle class="cls-4" cx="1929.51" cy="666.62" r="52.51"/>
      <line class="cls-1" x1="1924.17" y1="625.45" x2="1929.51" y2="629.47"/>
      <line class="cls-1" x1="1903.56" y1="637.08" x2="1908.7" y2="632.79"/>
      <line class="cls-1" x1="1891.51" y1="654.93" x2="1891.27" y2="648.25"/>
      <line class="cls-1" x1="1890.17" y1="688.05" x2="1889.93" y2="681.36"/>
      <line class="cls-1" x1="1897.18" y1="670.5" x2="1896.94" y2="663.81"/>
      <line class="cls-1" x1="1908.35" y1="655.89" x2="1903.01" y2="651.86"/>
      <line class="cls-1" x1="1908.35" y1="684.1" x2="1903.01" y2="680.08"/>
      <line class="cls-1" x1="1910.38" y1="703.45" x2="1904.09" y2="701.17"/>
      <line class="cls-1" x1="1913.98" y1="644" x2="1919.11" y2="639.71"/>
      <line class="cls-1" x1="1929.91" y1="642.47" x2="1936.48" y2="641.24"/>
      <line class="cls-1" x1="1923.51" y1="689.59" x2="1930.17" y2="690.14"/>
      <line class="cls-1" x1="1930.17" y1="703.05" x2="1935.52" y2="707.08"/>
      <line class="cls-1" x1="1949.11" y1="630.92" x2="1955.65" y2="632.36"/>
      <line class="cls-1" x1="1951.03" y1="648.8" x2="1956.75" y2="652.26"/>
      <line class="cls-1" x1="1958.46" y1="680.96" x2="1964.91" y2="679.19"/>
      <line class="cls-1" x1="1952.03" y1="667.16" x2="1958.46" y2="665.31"/>
      <line class="cls-1" x1="1951.23" y1="699.77" x2="1956.55" y2="695.72"/>
      <line class="cls-1" x1="1941.98" y1="694.67" x2="1946.92" y2="690.16"/>
      <line class="cls-1" x1="1969.48" y1="667.73" x2="1969.44" y2="661.04"/>
    </g>
    <g>
      <circle class="cls-4" cx="1067.53" cy="765.23" r="16.56"/>
      <circle class="cls-4" cx="1067.53" cy="765.23" r="52.51"/>
      <line class="cls-1" x1="1062.18" y1="724.05" x2="1067.53" y2="728.08"/>
      <line class="cls-1" x1="1041.58" y1="735.69" x2="1046.71" y2="731.4"/>
      <line class="cls-1" x1="1029.52" y1="753.54" x2="1029.28" y2="746.85"/>
      <line class="cls-1" x1="1028.19" y1="786.66" x2="1027.95" y2="779.97"/>
      <line class="cls-1" x1="1035.19" y1="769.11" x2="1034.95" y2="762.42"/>
      <line class="cls-1" x1="1046.37" y1="754.5" x2="1041.03" y2="750.47"/>
      <line class="cls-1" x1="1046.37" y1="782.71" x2="1041.03" y2="778.68"/>
      <line class="cls-1" x1="1048.4" y1="802.06" x2="1042.11" y2="799.77"/>
      <line class="cls-1" x1="1051.99" y1="742.61" x2="1057.13" y2="738.32"/>
      <line class="cls-1" x1="1067.92" y1="741.08" x2="1074.5" y2="739.84"/>
      <line class="cls-1" x1="1061.52" y1="788.19" x2="1068.19" y2="788.75"/>
      <line class="cls-1" x1="1068.19" y1="801.66" x2="1073.53" y2="805.69"/>
      <line class="cls-1" x1="1087.13" y1="729.53" x2="1093.66" y2="730.97"/>
      <line class="cls-1" x1="1089.04" y1="747.41" x2="1094.77" y2="750.87"/>
      <line class="cls-1" x1="1096.47" y1="779.57" x2="1102.92" y2="777.8"/>
      <line class="cls-1" x1="1090.04" y1="765.77" x2="1096.47" y2="763.92"/>
      <line class="cls-1" x1="1089.24" y1="798.37" x2="1094.57" y2="794.32"/>
      <line class="cls-1" x1="1079.99" y1="793.28" x2="1084.93" y2="788.77"/>
      <line class="cls-1" x1="1107.49" y1="766.34" x2="1107.45" y2="759.65"/>
    </g>
    <g>
      <circle class="cls-4" cx="1607.55" cy="1020.23" r="16.56"/>
      <circle class="cls-4" cx="1607.55" cy="1020.23" r="52.51"/>
      <line class="cls-1" x1="1602.21" y1="979.06" x2="1607.55" y2="983.08"/>
      <line class="cls-1" x1="1581.6" y1="990.69" x2="1586.74" y2="986.4"/>
      <line class="cls-1" x1="1569.54" y1="1008.54" x2="1569.31" y2="1001.86"/>
      <line class="cls-1" x1="1568.21" y1="1041.66" x2="1567.97" y2="1034.97"/>
      <line class="cls-1" x1="1575.22" y1="1024.11" x2="1574.98" y2="1017.42"/>
      <line class="cls-1" x1="1586.39" y1="1009.5" x2="1581.05" y2="1005.47"/>
      <line class="cls-1" x1="1586.39" y1="1037.71" x2="1581.05" y2="1033.69"/>
      <line class="cls-1" x1="1588.42" y1="1057.06" x2="1582.13" y2="1054.78"/>
      <line class="cls-1" x1="1592.01" y1="997.61" x2="1597.15" y2="993.32"/>
      <line class="cls-1" x1="1607.95" y1="996.08" x2="1614.52" y2="994.85"/>
      <line class="cls-1" x1="1601.55" y1="1043.2" x2="1608.21" y2="1043.75"/>
      <line class="cls-1" x1="1608.21" y1="1056.66" x2="1613.56" y2="1060.69"/>
      <line class="cls-1" x1="1627.15" y1="984.53" x2="1633.69" y2="985.97"/>
      <line class="cls-1" x1="1629.07" y1="1002.41" x2="1634.79" y2="1005.87"/>
      <line class="cls-1" x1="1636.5" y1="1034.57" x2="1642.95" y2="1032.8"/>
      <line class="cls-1" x1="1630.07" y1="1020.77" x2="1636.5" y2="1018.92"/>
      <line class="cls-1" x1="1629.27" y1="1053.38" x2="1634.59" y2="1049.33"/>
      <line class="cls-1" x1="1620.01" y1="1048.28" x2="1624.95" y2="1043.77"/>
      <line class="cls-1" x1="1647.52" y1="1021.34" x2="1647.48" y2="1014.65"/>
    </g>
    <g>
      <circle class="cls-4" cx="53.01" cy="612.79" r="16.56"/>
      <circle class="cls-4" cx="53.01" cy="612.79" r="52.51"/>
      <line class="cls-1" x1="47.67" y1="571.61" x2="53.01" y2="575.64"/>
      <line class="cls-1" x1="27.06" y1="583.24" x2="32.2" y2="578.95"/>
      <line class="cls-1" x1="15" y1="601.1" x2="14.77" y2="594.41"/>
      <line class="cls-1" x1="13.67" y1="634.21" x2="13.43" y2="627.53"/>
      <line class="cls-1" x1="20.68" y1="616.66" x2="20.44" y2="609.98"/>
      <line class="cls-1" x1="31.85" y1="602.05" x2="26.51" y2="598.02"/>
      <line class="cls-1" x1="31.85" y1="630.27" x2="26.51" y2="626.24"/>
      <line class="cls-1" x1="33.88" y1="649.61" x2="27.59" y2="647.33"/>
      <line class="cls-1" x1="37.47" y1="590.16" x2="42.61" y2="585.87"/>
      <line class="cls-1" x1="53.4" y1="588.64" x2="59.98" y2="587.4"/>
      <line class="cls-1" x1="47.01" y1="635.75" x2="53.67" y2="636.31"/>
      <line class="cls-1" x1="53.67" y1="649.22" x2="59.01" y2="653.25"/>
      <line class="cls-1" x1="72.61" y1="577.08" x2="79.14" y2="578.52"/>
      <line class="cls-1" x1="74.53" y1="594.96" x2="80.25" y2="598.42"/>
      <line class="cls-1" x1="81.95" y1="627.12" x2="88.41" y2="625.35"/>
      <line class="cls-1" x1="75.52" y1="613.32" x2="81.95" y2="611.47"/>
      <line class="cls-1" x1="74.73" y1="645.93" x2="80.05" y2="641.88"/>
      <line class="cls-1" x1="65.47" y1="640.83" x2="70.41" y2="636.32"/>
      <line class="cls-1" x1="92.98" y1="613.89" x2="92.94" y2="607.2"/>
    </g>
    <g>
      <path class="cls-3" d="M593.78,135.74l-25.83,22.41c-3.7,3.21-8.97,3.88-13.36,1.7h0c-4.62-2.3-7.28-7.26-6.64-12.38l4.51-36.09c.97-7.78,9.71-11.92,16.34-7.73l23.67,14.93c6.08,3.83,6.73,12.44,1.31,17.15Z"/>
      <path class="cls-3" d="M554.04,106.97s-19.51-8.45-24.21-2.29-1.97,31.67-1.97,31.67c0,0-.41,7.58,6.12,9.43s13.88,3.27,13.88,3.27"/>
      <path class="cls-3" d="M528.21,108.52s-25.13,2.12-24.24,14.77,23.8,14.83,23.8,14.83"/>
      <path class="cls-3" d="M596.33,132.72s17.6,11.93,14.92,19.2c-2.68,7.27-25.67,18.65-25.67,18.65,0,0-6.18,4.41-11.24-.11s-10.2-9.96-10.2-9.96"/>
      <path class="cls-3" d="M608.88,155.35s11.69,22.35.53,28.38c-11.16,6.03-25.28-12.14-25.28-12.14"/>
    </g>
    <g>
      <path class="cls-3" d="M203.41,415l5.66,33.73c.81,4.83-1.36,9.68-5.52,12.29h0c-4.37,2.74-9.99,2.43-14.02-.79l-28.44-22.66c-6.14-4.89-5.11-14.5,1.92-17.98l25.08-12.42c6.44-3.19,14.13.74,15.32,7.83Z"/>
      <path class="cls-3" d="M158.14,433.91s-17.39,12.24-14.58,19.46,26,18.2,26,18.2c0,0,6.26,4.3,11.24-.31s10.02-10.14,10.02-10.14"/>
      <path class="cls-3" d="M146,456.76s-11.29,22.55-.03,28.38c11.26,5.83,25.06-12.58,25.06-12.58"/>
      <path class="cls-3" d="M202.17,411.25s19.36-8.8,24.16-2.72c4.81,6.08,2.53,31.63,2.53,31.63,0,0,.54,7.57-5.95,9.54s-13.82,3.51-13.82,3.51"/>
      <path class="cls-3" d="M228.02,412.34s25.17,1.68,24.5,14.34c-.67,12.66-23.53,15.24-23.53,15.24"/>
    </g>
    <g>
      <path class="cls-3" d="M185.86,917.05l-31.09,14.25c-4.46,2.04-9.7,1.2-13.3-2.13h0c-3.78-3.5-4.94-9.01-2.89-13.74l14.48-33.36c3.12-7.2,12.67-8.71,17.86-2.83l18.52,20.98c4.76,5.39,2.96,13.84-3.57,16.83Z"/>
      <path class="cls-3" d="M155.82,878.26s-16.34-13.6-22.58-9.01c-6.24,4.59-10.8,29.84-10.8,29.84,0,0-2.53,7.16,3.22,10.77s12.4,7.04,12.4,7.04"/>
      <path class="cls-3" d="M130.6,872.48s-24.72-5.03-27.41,7.36,18.67,20.92,18.67,20.92"/>
      <path class="cls-3" d="M189.16,914.87s13.53,16.4,8.92,22.62-29.88,10.68-29.88,10.68c0,0-7.17,2.5-10.76-3.26-3.59-5.76-6.99-12.43-6.99-12.43"/>
      <path class="cls-3" d="M194.84,940.11s4.93,24.73-7.47,27.38c-12.4,2.65-20.85-18.75-20.85-18.75"/>
    </g>
    <g>
      <path class="cls-3" d="M672.3,749.27l-20.5,27.38c-2.94,3.92-7.95,5.7-12.7,4.49h0c-5-1.27-8.65-5.55-9.11-10.69l-3.24-36.22c-.7-7.81,6.96-13.7,14.33-11.02l26.3,9.57c6.75,2.46,9.22,10.73,4.91,16.49Z"/>
      <path class="cls-3" d="M627.36,729.57s-20.86-4.13-24.14,2.89,4.78,31.37,4.78,31.37c0,0,1.21,7.5,7.98,7.92,6.78.42,14.25.25,14.25.25"/>
      <path class="cls-3" d="M602.45,736.55s-24.11,7.4-20.56,19.57c3.55,12.17,26.4,9.44,26.4,9.44"/>
      <path class="cls-3" d="M674.15,745.78s19.73,7.93,18.65,15.6-21.14,23.67-21.14,23.67c0,0-5.1,5.62-11.01,2.28-5.91-3.34-12.08-7.57-12.08-7.57"/>
      <path class="cls-3" d="M691.21,765.23s16.16,19.36,6.54,27.62c-9.62,8.26-27.28-6.5-27.28-6.5"/>
    </g>
    <g>
      <path class="cls-3" d="M1692.29,788.28l-31.75,12.72c-4.55,1.82-9.75.73-13.18-2.77h0c-3.61-3.68-4.5-9.24-2.22-13.87l16.08-32.62c3.47-7.04,13.07-8.08,17.97-1.95l17.48,21.86c4.49,5.61,2.29,13.96-4.38,16.64Z"/>
      <path class="cls-3" d="M1664.17,748.08s-15.66-14.38-22.12-10.09c-6.46,4.28-12.24,29.28-12.24,29.28,0,0-2.87,7.03,2.69,10.92,5.57,3.89,12.04,7.63,12.04,7.63"/>
      <path class="cls-3" d="M1639.26,741.08s-24.44-6.23-27.74,6.02c-3.3,12.24,17.63,21.8,17.63,21.8"/>
      <path class="cls-3" d="M1695.7,786.26s12.72,17.04,7.81,23.03c-4.91,5.99-30.37,9.22-30.37,9.22,0,0-7.28,2.15-10.59-3.78-3.31-5.93-6.37-12.75-6.37-12.75"/>
      <path class="cls-3" d="M1700.14,811.75s3.72,24.95-8.79,26.99c-12.52,2.04-19.91-19.75-19.91-19.75"/>
    </g>
    <g>
      <path class="cls-3" d="M1813.06,115.82l18.66,28.66c2.67,4.11,2.62,9.42-.15,13.47h0c-2.91,4.26-8.19,6.22-13.17,4.88l-35.13-9.41c-7.58-2.03-10.47-11.25-5.42-17.25l18.03-21.41c4.63-5.5,13.25-4.97,17.17,1.06Z"/>
      <path class="cls-3" d="M1779.11,151.24s-11.05,18.17-5.59,23.66,31.1,6.3,31.1,6.3c0,0,7.45,1.45,10.18-4.77s5.14-13.3,5.14-13.3"/>
      <path class="cls-3" d="M1777.1,177.04s-1.34,25.19,11.31,26.03,17.95-21.55,17.95-21.55"/>
      <path class="cls-3" d="M1810.41,112.87s14.23-15.8,21.06-12.15c6.83,3.65,14.96,27.99,14.96,27.99,0,0,3.52,6.73-1.65,11.12-5.17,4.4-11.26,8.74-11.26,8.74"/>
      <path class="cls-3" d="M1834.55,103.55s23.74-8.52,28.19,3.36c4.44,11.88-15.48,23.38-15.48,23.38"/>
    </g>
  </g>
</svg>